G04 #@! TF.GenerationSoftware,KiCad,Pcbnew,(6.0.0)*
G04 #@! TF.CreationDate,2022-03-25T14:06:01-05:00*
G04 #@! TF.ProjectId,gencyber-badge-22_2,67656e63-7962-4657-922d-62616467652d,rev?*
G04 #@! TF.SameCoordinates,Original*
G04 #@! TF.FileFunction,Copper,L2,Bot*
G04 #@! TF.FilePolarity,Positive*
%FSLAX46Y46*%
G04 Gerber Fmt 4.6, Leading zero omitted, Abs format (unit mm)*
G04 Created by KiCad (PCBNEW (6.0.0)) date 2022-03-25 14:06:01*
%MOMM*%
%LPD*%
G01*
G04 APERTURE LIST*
G04 Aperture macros list*
%AMRoundRect*
0 Rectangle with rounded corners*
0 $1 Rounding radius*
0 $2 $3 $4 $5 $6 $7 $8 $9 X,Y pos of 4 corners*
0 Add a 4 corners polygon primitive as box body*
4,1,4,$2,$3,$4,$5,$6,$7,$8,$9,$2,$3,0*
0 Add four circle primitives for the rounded corners*
1,1,$1+$1,$2,$3*
1,1,$1+$1,$4,$5*
1,1,$1+$1,$6,$7*
1,1,$1+$1,$8,$9*
0 Add four rect primitives between the rounded corners*
20,1,$1+$1,$2,$3,$4,$5,0*
20,1,$1+$1,$4,$5,$6,$7,0*
20,1,$1+$1,$6,$7,$8,$9,0*
20,1,$1+$1,$8,$9,$2,$3,0*%
G04 Aperture macros list end*
G04 #@! TA.AperFunction,ComponentPad*
%ADD10C,2.000000*%
G04 #@! TD*
G04 #@! TA.AperFunction,ComponentPad*
%ADD11RoundRect,0.250200X-0.649800X-0.649800X0.649800X-0.649800X0.649800X0.649800X-0.649800X0.649800X0*%
G04 #@! TD*
G04 #@! TA.AperFunction,ComponentPad*
%ADD12C,1.800000*%
G04 #@! TD*
G04 #@! TA.AperFunction,ComponentPad*
%ADD13R,1.800000X1.800000*%
G04 #@! TD*
G04 #@! TA.AperFunction,ComponentPad*
%ADD14R,1.600000X1.600000*%
G04 #@! TD*
G04 #@! TA.AperFunction,ComponentPad*
%ADD15O,1.600000X1.600000*%
G04 #@! TD*
G04 #@! TA.AperFunction,ComponentPad*
%ADD16RoundRect,0.450000X-0.450000X-0.450000X0.450000X-0.450000X0.450000X0.450000X-0.450000X0.450000X0*%
G04 #@! TD*
G04 #@! TA.AperFunction,ComponentPad*
%ADD17C,1.400000*%
G04 #@! TD*
G04 #@! TA.AperFunction,ComponentPad*
%ADD18O,1.400000X1.400000*%
G04 #@! TD*
G04 #@! TA.AperFunction,ComponentPad*
%ADD19C,2.286000*%
G04 #@! TD*
G04 #@! TA.AperFunction,SMDPad,CuDef*
%ADD20C,17.780000*%
G04 #@! TD*
G04 APERTURE END LIST*
D10*
X136050000Y-88550000D03*
X129550000Y-88550000D03*
X136050000Y-93050000D03*
X129550000Y-93050000D03*
D11*
X167760000Y-101875000D03*
D12*
X170300000Y-101875000D03*
X172840000Y-101875000D03*
D13*
X129910000Y-102300000D03*
D12*
X132450000Y-102300000D03*
D14*
X158560000Y-93700000D03*
D15*
X156020000Y-93700000D03*
X153480000Y-93700000D03*
X150940000Y-93700000D03*
X148400000Y-93700000D03*
X145860000Y-93700000D03*
X143320000Y-93700000D03*
X143320000Y-101320000D03*
X145860000Y-101320000D03*
X148400000Y-101320000D03*
X150940000Y-101320000D03*
X153480000Y-101320000D03*
X156020000Y-101320000D03*
X158560000Y-101320000D03*
D16*
X148390000Y-112440000D03*
D12*
X150168000Y-113964000D03*
X151692000Y-112440000D03*
X153216000Y-113964000D03*
D10*
X172450000Y-88550000D03*
X165950000Y-88550000D03*
X172450000Y-93050000D03*
X165950000Y-93050000D03*
D17*
X148360000Y-106380000D03*
D18*
X153440000Y-106380000D03*
D19*
X161414000Y-78776000D03*
X161414000Y-81824000D03*
X140586000Y-81824000D03*
X140586000Y-78776000D03*
D20*
X151000000Y-80300000D03*
G04 #@! TA.AperFunction,Conductor*
G36*
X151401916Y-61239174D02*
G01*
X152208831Y-61455388D01*
X152223905Y-61461631D01*
X175041734Y-74635356D01*
X175054678Y-74645289D01*
X175927760Y-75518371D01*
X175943936Y-75546389D01*
X176263507Y-76739039D01*
X176265637Y-76755215D01*
X176265651Y-103103213D01*
X176263521Y-103119389D01*
X175943949Y-104312045D01*
X175927773Y-104340063D01*
X175055866Y-105211970D01*
X175042315Y-105222248D01*
X175032092Y-105227999D01*
X175031740Y-105228664D01*
X175031631Y-105228748D01*
X172446560Y-106721262D01*
X152223904Y-118396994D01*
X152223902Y-118396995D01*
X152208830Y-118403238D01*
X151016173Y-118722810D01*
X150983823Y-118722810D01*
X149791166Y-118403237D01*
X149776094Y-118396994D01*
X143885916Y-114996246D01*
X138613469Y-111952151D01*
X147362500Y-111952151D01*
X147362501Y-112927848D01*
X147377365Y-113040758D01*
X147378929Y-113044535D01*
X147378930Y-113044537D01*
X147405235Y-113108042D01*
X147435555Y-113181242D01*
X147528122Y-113301878D01*
X147648759Y-113394445D01*
X147652543Y-113396012D01*
X147652544Y-113396013D01*
X147785456Y-113451067D01*
X147785457Y-113451067D01*
X147789242Y-113452635D01*
X147793304Y-113453170D01*
X147793305Y-113453170D01*
X147900120Y-113467233D01*
X147900126Y-113467233D01*
X147902151Y-113467500D01*
X148390000Y-113467500D01*
X148877848Y-113467499D01*
X148990758Y-113452635D01*
X148994535Y-113451071D01*
X148994537Y-113451070D01*
X149127459Y-113396012D01*
X149131242Y-113394445D01*
X149134489Y-113391953D01*
X149134495Y-113391950D01*
X149201566Y-113340485D01*
X149247771Y-113328105D01*
X149289198Y-113352023D01*
X149301578Y-113398228D01*
X149294383Y-113420178D01*
X149276246Y-113453169D01*
X149227910Y-113541092D01*
X149219018Y-113557266D01*
X149158090Y-113749337D01*
X149135629Y-113949584D01*
X149152490Y-114150381D01*
X149208032Y-114344078D01*
X149300139Y-114523299D01*
X149425302Y-114681215D01*
X149578754Y-114811814D01*
X149754651Y-114910119D01*
X149757555Y-114911063D01*
X149757556Y-114911063D01*
X149943379Y-114971441D01*
X149943384Y-114971442D01*
X149946292Y-114972387D01*
X150146378Y-114996246D01*
X150149420Y-114996012D01*
X150149423Y-114996012D01*
X150344236Y-114981021D01*
X150344238Y-114981021D01*
X150347287Y-114980786D01*
X150541367Y-114926598D01*
X150544090Y-114925223D01*
X150544094Y-114925221D01*
X150718506Y-114837119D01*
X150721226Y-114835745D01*
X150723624Y-114833872D01*
X150723628Y-114833869D01*
X150806608Y-114769038D01*
X150880013Y-114711687D01*
X151011679Y-114559150D01*
X151111210Y-114383944D01*
X151174814Y-114192743D01*
X151200069Y-113992828D01*
X151200472Y-113964000D01*
X151200303Y-113962280D01*
X151200303Y-113962271D01*
X151181107Y-113766498D01*
X151180809Y-113763458D01*
X151130626Y-113597244D01*
X151123452Y-113573483D01*
X151123451Y-113573480D01*
X151122568Y-113570556D01*
X151121132Y-113567855D01*
X151120950Y-113567414D01*
X151121032Y-113519578D01*
X151154914Y-113485812D01*
X151203404Y-113486170D01*
X151331240Y-113541092D01*
X151336657Y-113542852D01*
X151537937Y-113588398D01*
X151543585Y-113589141D01*
X151749794Y-113597244D01*
X151755488Y-113596945D01*
X151959714Y-113567333D01*
X151965263Y-113566001D01*
X152160672Y-113499669D01*
X152165890Y-113497346D01*
X152174075Y-113492762D01*
X152221579Y-113487140D01*
X152259144Y-113516755D01*
X152264187Y-113566191D01*
X152206090Y-113749337D01*
X152183629Y-113949584D01*
X152200490Y-114150381D01*
X152256032Y-114344078D01*
X152348139Y-114523299D01*
X152473302Y-114681215D01*
X152626754Y-114811814D01*
X152802651Y-114910119D01*
X152805555Y-114911063D01*
X152805556Y-114911063D01*
X152991379Y-114971441D01*
X152991384Y-114971442D01*
X152994292Y-114972387D01*
X153194378Y-114996246D01*
X153197420Y-114996012D01*
X153197423Y-114996012D01*
X153392236Y-114981021D01*
X153392238Y-114981021D01*
X153395287Y-114980786D01*
X153589367Y-114926598D01*
X153592090Y-114925223D01*
X153592094Y-114925221D01*
X153766506Y-114837119D01*
X153769226Y-114835745D01*
X153771624Y-114833872D01*
X153771628Y-114833869D01*
X153854608Y-114769038D01*
X153928013Y-114711687D01*
X154059679Y-114559150D01*
X154159210Y-114383944D01*
X154222814Y-114192743D01*
X154248069Y-113992828D01*
X154248472Y-113964000D01*
X154248303Y-113962280D01*
X154248303Y-113962271D01*
X154229107Y-113766498D01*
X154228809Y-113763458D01*
X154170568Y-113570556D01*
X154108152Y-113453169D01*
X154077403Y-113395337D01*
X154077401Y-113395334D01*
X154075968Y-113392639D01*
X153948612Y-113236485D01*
X153793351Y-113108042D01*
X153790667Y-113106591D01*
X153790663Y-113106588D01*
X153618784Y-113013654D01*
X153616099Y-113012202D01*
X153513667Y-112980494D01*
X153426522Y-112953518D01*
X153426519Y-112953517D01*
X153423607Y-112952616D01*
X153420574Y-112952297D01*
X153420573Y-112952297D01*
X153370780Y-112947064D01*
X153223208Y-112931553D01*
X153220175Y-112931829D01*
X153220171Y-112931829D01*
X153132987Y-112939764D01*
X153022534Y-112949816D01*
X152829229Y-113006709D01*
X152826519Y-113008126D01*
X152823684Y-113009271D01*
X152822936Y-113007419D01*
X152781249Y-113011160D01*
X152744537Y-112980494D01*
X152740261Y-112932850D01*
X152745379Y-112920972D01*
X152749348Y-112913884D01*
X152751669Y-112908672D01*
X152818001Y-112713263D01*
X152819333Y-112707714D01*
X152849093Y-112502470D01*
X152849404Y-112498825D01*
X152850896Y-112441827D01*
X152850777Y-112438179D01*
X152831799Y-112231654D01*
X152830758Y-112226036D01*
X152774745Y-112027429D01*
X152772702Y-112022107D01*
X152681429Y-111837021D01*
X152678446Y-111832155D01*
X152677595Y-111831015D01*
X152669418Y-111826150D01*
X152663578Y-111827633D01*
X152051210Y-112440000D01*
X151736194Y-112755016D01*
X151692000Y-112773322D01*
X151647806Y-112755016D01*
X150722460Y-111829670D01*
X150713669Y-111826029D01*
X150710205Y-111827464D01*
X150622606Y-111993961D01*
X150620427Y-111999221D01*
X150559230Y-112196311D01*
X150558046Y-112201882D01*
X150533790Y-112406814D01*
X150533641Y-112412526D01*
X150547137Y-112618434D01*
X150548032Y-112624082D01*
X150598826Y-112824089D01*
X150600729Y-112829462D01*
X150645878Y-112927398D01*
X150647756Y-112975196D01*
X150615285Y-113010323D01*
X150568434Y-113011119D01*
X150568099Y-113012202D01*
X150378522Y-112953518D01*
X150378519Y-112953517D01*
X150375607Y-112952616D01*
X150372574Y-112952297D01*
X150372573Y-112952297D01*
X150322780Y-112947064D01*
X150175208Y-112931553D01*
X150172175Y-112931829D01*
X150172171Y-112931829D01*
X150084987Y-112939764D01*
X149974534Y-112949816D01*
X149781229Y-113006709D01*
X149723871Y-113036695D01*
X149605360Y-113098650D01*
X149605357Y-113098652D01*
X149602656Y-113100064D01*
X149600277Y-113101977D01*
X149600272Y-113101980D01*
X149456324Y-113217718D01*
X149410411Y-113231144D01*
X149368453Y-113208173D01*
X149355027Y-113162260D01*
X149359418Y-113145093D01*
X149377276Y-113101980D01*
X149402635Y-113040758D01*
X149403170Y-113036695D01*
X149417233Y-112929880D01*
X149417233Y-112929874D01*
X149417500Y-112927849D01*
X149417499Y-111952152D01*
X149402635Y-111839242D01*
X149399700Y-111832155D01*
X149346012Y-111702541D01*
X149344445Y-111698758D01*
X149341952Y-111695509D01*
X149254369Y-111581368D01*
X149254368Y-111581367D01*
X149251878Y-111578122D01*
X149131241Y-111485555D01*
X149101259Y-111473136D01*
X149082370Y-111465312D01*
X151080245Y-111465312D01*
X151080876Y-111469665D01*
X151683210Y-112072000D01*
X151692000Y-112075641D01*
X151700790Y-112072000D01*
X152299654Y-111473136D01*
X152303295Y-111464345D01*
X152301473Y-111459946D01*
X152220571Y-111408901D01*
X152215493Y-111406313D01*
X152023816Y-111329842D01*
X152018349Y-111328223D01*
X151815949Y-111287963D01*
X151810285Y-111287368D01*
X151603932Y-111284666D01*
X151598245Y-111285114D01*
X151394873Y-111320060D01*
X151389350Y-111321539D01*
X151195750Y-111392962D01*
X151190601Y-111395418D01*
X151085939Y-111457686D01*
X151080245Y-111465312D01*
X149082370Y-111465312D01*
X148994544Y-111428933D01*
X148994543Y-111428933D01*
X148990758Y-111427365D01*
X148986696Y-111426830D01*
X148986695Y-111426830D01*
X148879880Y-111412767D01*
X148879874Y-111412767D01*
X148877849Y-111412500D01*
X148875802Y-111412500D01*
X148390001Y-111412501D01*
X147902152Y-111412501D01*
X147789242Y-111427365D01*
X147785465Y-111428929D01*
X147785463Y-111428930D01*
X147652541Y-111483988D01*
X147648758Y-111485555D01*
X147645509Y-111488048D01*
X147531370Y-111575630D01*
X147528122Y-111578122D01*
X147435555Y-111698759D01*
X147433988Y-111702543D01*
X147433987Y-111702544D01*
X147380301Y-111832155D01*
X147377365Y-111839242D01*
X147362500Y-111952151D01*
X138613469Y-111952151D01*
X128962367Y-106380000D01*
X147527942Y-106380000D01*
X147546124Y-106552995D01*
X147599877Y-106718428D01*
X147686851Y-106869071D01*
X147803245Y-106998340D01*
X147805892Y-107000263D01*
X147805894Y-107000265D01*
X147941322Y-107098659D01*
X147941326Y-107098661D01*
X147943971Y-107100583D01*
X148102880Y-107171334D01*
X148106087Y-107172016D01*
X148106088Y-107172016D01*
X148269816Y-107206818D01*
X148269819Y-107206818D01*
X148273026Y-107207500D01*
X148446974Y-107207500D01*
X148450181Y-107206818D01*
X148450184Y-107206818D01*
X148613912Y-107172016D01*
X148613913Y-107172016D01*
X148617120Y-107171334D01*
X148776029Y-107100583D01*
X148778674Y-107098661D01*
X148778678Y-107098659D01*
X148914106Y-107000265D01*
X148914108Y-107000263D01*
X148916755Y-106998340D01*
X149033149Y-106869071D01*
X149120123Y-106718428D01*
X149173876Y-106552995D01*
X149192058Y-106380000D01*
X152607942Y-106380000D01*
X152626124Y-106552995D01*
X152679877Y-106718428D01*
X152766851Y-106869071D01*
X152883245Y-106998340D01*
X152885892Y-107000263D01*
X152885894Y-107000265D01*
X153021322Y-107098659D01*
X153021326Y-107098661D01*
X153023971Y-107100583D01*
X153182880Y-107171334D01*
X153186087Y-107172016D01*
X153186088Y-107172016D01*
X153349816Y-107206818D01*
X153349819Y-107206818D01*
X153353026Y-107207500D01*
X153526974Y-107207500D01*
X153530181Y-107206818D01*
X153530184Y-107206818D01*
X153693912Y-107172016D01*
X153693913Y-107172016D01*
X153697120Y-107171334D01*
X153856029Y-107100583D01*
X153858674Y-107098661D01*
X153858678Y-107098659D01*
X153994106Y-107000265D01*
X153994108Y-107000263D01*
X153996755Y-106998340D01*
X154113149Y-106869071D01*
X154200123Y-106718428D01*
X154253876Y-106552995D01*
X154272058Y-106380000D01*
X154253876Y-106207005D01*
X154200123Y-106041572D01*
X154113149Y-105890929D01*
X153996755Y-105761660D01*
X153994108Y-105759737D01*
X153994106Y-105759735D01*
X153858678Y-105661341D01*
X153858674Y-105661339D01*
X153856029Y-105659417D01*
X153697120Y-105588666D01*
X153693913Y-105587984D01*
X153693912Y-105587984D01*
X153530184Y-105553182D01*
X153530181Y-105553182D01*
X153526974Y-105552500D01*
X153353026Y-105552500D01*
X153349819Y-105553182D01*
X153349816Y-105553182D01*
X153186088Y-105587984D01*
X153186087Y-105587984D01*
X153182880Y-105588666D01*
X153023971Y-105659417D01*
X153021326Y-105661339D01*
X153021322Y-105661341D01*
X152885894Y-105759735D01*
X152885892Y-105759737D01*
X152883245Y-105761660D01*
X152766851Y-105890929D01*
X152679877Y-106041572D01*
X152626124Y-106207005D01*
X152607942Y-106380000D01*
X149192058Y-106380000D01*
X149173876Y-106207005D01*
X149120123Y-106041572D01*
X149033149Y-105890929D01*
X148916755Y-105761660D01*
X148914108Y-105759737D01*
X148914106Y-105759735D01*
X148778678Y-105661341D01*
X148778674Y-105661339D01*
X148776029Y-105659417D01*
X148617120Y-105588666D01*
X148613913Y-105587984D01*
X148613912Y-105587984D01*
X148450184Y-105553182D01*
X148450181Y-105553182D01*
X148446974Y-105552500D01*
X148273026Y-105552500D01*
X148269819Y-105553182D01*
X148269816Y-105553182D01*
X148106088Y-105587984D01*
X148106087Y-105587984D01*
X148102880Y-105588666D01*
X147943971Y-105659417D01*
X147941326Y-105661339D01*
X147941322Y-105661341D01*
X147805894Y-105759735D01*
X147805892Y-105759737D01*
X147803245Y-105761660D01*
X147686851Y-105890929D01*
X147599877Y-106041572D01*
X147546124Y-106207005D01*
X147527942Y-106380000D01*
X128962367Y-106380000D01*
X126958271Y-105222917D01*
X126945328Y-105212986D01*
X126072242Y-104339900D01*
X126056066Y-104311882D01*
X125824895Y-103449141D01*
X125761502Y-103212558D01*
X128882500Y-103212558D01*
X128889898Y-103249748D01*
X128918078Y-103291922D01*
X128960252Y-103320102D01*
X128966285Y-103321302D01*
X128966287Y-103321303D01*
X128992384Y-103326494D01*
X128997442Y-103327500D01*
X130822558Y-103327500D01*
X130827616Y-103326494D01*
X130853713Y-103321303D01*
X130853715Y-103321302D01*
X130859748Y-103320102D01*
X130901922Y-103291922D01*
X130912610Y-103275927D01*
X131838433Y-103275927D01*
X131840404Y-103280684D01*
X131894616Y-103316907D01*
X131899633Y-103319631D01*
X132089240Y-103401092D01*
X132094657Y-103402852D01*
X132295937Y-103448398D01*
X132301585Y-103449141D01*
X132507794Y-103457244D01*
X132513488Y-103456945D01*
X132717714Y-103427333D01*
X132723263Y-103426001D01*
X132918672Y-103359669D01*
X132923884Y-103357348D01*
X133056786Y-103282920D01*
X133062678Y-103275447D01*
X133062200Y-103271411D01*
X132458790Y-102668000D01*
X132450000Y-102664359D01*
X132441210Y-102668000D01*
X131842074Y-103267136D01*
X131838433Y-103275927D01*
X130912610Y-103275927D01*
X130930102Y-103249748D01*
X130937500Y-103212558D01*
X130937500Y-102272526D01*
X131291641Y-102272526D01*
X131305137Y-102478434D01*
X131306032Y-102484082D01*
X131356826Y-102684089D01*
X131358729Y-102689462D01*
X131445125Y-102876868D01*
X131447981Y-102881815D01*
X131466061Y-102907398D01*
X131474110Y-102912476D01*
X131479542Y-102911247D01*
X132082000Y-102308790D01*
X132085641Y-102300000D01*
X132814359Y-102300000D01*
X132818000Y-102308790D01*
X133418054Y-102908844D01*
X133426845Y-102912485D01*
X133430600Y-102910929D01*
X133507348Y-102773884D01*
X133509669Y-102768672D01*
X133576001Y-102573263D01*
X133577333Y-102567714D01*
X133607093Y-102362470D01*
X133607404Y-102358825D01*
X133608896Y-102301827D01*
X133608777Y-102298179D01*
X133589799Y-102091654D01*
X133588758Y-102086036D01*
X133532745Y-101887429D01*
X133530702Y-101882107D01*
X133439429Y-101697021D01*
X133436446Y-101692155D01*
X133435595Y-101691015D01*
X133427418Y-101686150D01*
X133421578Y-101687633D01*
X132818000Y-102291210D01*
X132814359Y-102300000D01*
X132085641Y-102300000D01*
X132082000Y-102291210D01*
X131480460Y-101689670D01*
X131471669Y-101686029D01*
X131468205Y-101687464D01*
X131380606Y-101853961D01*
X131378427Y-101859221D01*
X131317230Y-102056311D01*
X131316046Y-102061882D01*
X131291790Y-102266814D01*
X131291641Y-102272526D01*
X130937500Y-102272526D01*
X130937500Y-101387442D01*
X130930102Y-101350252D01*
X130913437Y-101325312D01*
X131838245Y-101325312D01*
X131838876Y-101329665D01*
X132441210Y-101932000D01*
X132450000Y-101935641D01*
X132458790Y-101932000D01*
X133057654Y-101333136D01*
X133061295Y-101324345D01*
X133059495Y-101320000D01*
X142387391Y-101320000D01*
X142407771Y-101513900D01*
X142408784Y-101517017D01*
X142408784Y-101517018D01*
X142467006Y-101696210D01*
X142467008Y-101696215D01*
X142468019Y-101699326D01*
X142469656Y-101702161D01*
X142563865Y-101865338D01*
X142563868Y-101865342D01*
X142565503Y-101868174D01*
X142567694Y-101870608D01*
X142567696Y-101870610D01*
X142693774Y-102010633D01*
X142695963Y-102013064D01*
X142853695Y-102127663D01*
X143031808Y-102206964D01*
X143035012Y-102207645D01*
X143219315Y-102246820D01*
X143219319Y-102246820D01*
X143222516Y-102247500D01*
X143417484Y-102247500D01*
X143420681Y-102246820D01*
X143420685Y-102246820D01*
X143604988Y-102207645D01*
X143608192Y-102206964D01*
X143786305Y-102127663D01*
X143944037Y-102013064D01*
X143946226Y-102010633D01*
X144072304Y-101870610D01*
X144072306Y-101870608D01*
X144074497Y-101868174D01*
X144076132Y-101865342D01*
X144076135Y-101865338D01*
X144170344Y-101702161D01*
X144171981Y-101699326D01*
X144172992Y-101696215D01*
X144172994Y-101696210D01*
X144231216Y-101517018D01*
X144231216Y-101517017D01*
X144232229Y-101513900D01*
X144252609Y-101320000D01*
X144927391Y-101320000D01*
X144947771Y-101513900D01*
X144948784Y-101517017D01*
X144948784Y-101517018D01*
X145007006Y-101696210D01*
X145007008Y-101696215D01*
X145008019Y-101699326D01*
X145009656Y-101702161D01*
X145103865Y-101865338D01*
X145103868Y-101865342D01*
X145105503Y-101868174D01*
X145107694Y-101870608D01*
X145107696Y-101870610D01*
X145233774Y-102010633D01*
X145235963Y-102013064D01*
X145393695Y-102127663D01*
X145571808Y-102206964D01*
X145575012Y-102207645D01*
X145759315Y-102246820D01*
X145759319Y-102246820D01*
X145762516Y-102247500D01*
X145957484Y-102247500D01*
X145960681Y-102246820D01*
X145960685Y-102246820D01*
X146144988Y-102207645D01*
X146148192Y-102206964D01*
X146326305Y-102127663D01*
X146484037Y-102013064D01*
X146486226Y-102010633D01*
X146612304Y-101870610D01*
X146612306Y-101870608D01*
X146614497Y-101868174D01*
X146616132Y-101865342D01*
X146616135Y-101865338D01*
X146710344Y-101702161D01*
X146711981Y-101699326D01*
X146712992Y-101696215D01*
X146712994Y-101696210D01*
X146771216Y-101517018D01*
X146771216Y-101517017D01*
X146772229Y-101513900D01*
X146792609Y-101320000D01*
X147467391Y-101320000D01*
X147487771Y-101513900D01*
X147488784Y-101517017D01*
X147488784Y-101517018D01*
X147547006Y-101696210D01*
X147547008Y-101696215D01*
X147548019Y-101699326D01*
X147549656Y-101702161D01*
X147643865Y-101865338D01*
X147643868Y-101865342D01*
X147645503Y-101868174D01*
X147647694Y-101870608D01*
X147647696Y-101870610D01*
X147773774Y-102010633D01*
X147775963Y-102013064D01*
X147933695Y-102127663D01*
X148111808Y-102206964D01*
X148115012Y-102207645D01*
X148299315Y-102246820D01*
X148299319Y-102246820D01*
X148302516Y-102247500D01*
X148497484Y-102247500D01*
X148500681Y-102246820D01*
X148500685Y-102246820D01*
X148684988Y-102207645D01*
X148688192Y-102206964D01*
X148866305Y-102127663D01*
X149024037Y-102013064D01*
X149026226Y-102010633D01*
X149152304Y-101870610D01*
X149152306Y-101870608D01*
X149154497Y-101868174D01*
X149156132Y-101865342D01*
X149156135Y-101865338D01*
X149250344Y-101702161D01*
X149251981Y-101699326D01*
X149252992Y-101696215D01*
X149252994Y-101696210D01*
X149311216Y-101517018D01*
X149311216Y-101517017D01*
X149312229Y-101513900D01*
X149332609Y-101320000D01*
X150007391Y-101320000D01*
X150027771Y-101513900D01*
X150028784Y-101517017D01*
X150028784Y-101517018D01*
X150087006Y-101696210D01*
X150087008Y-101696215D01*
X150088019Y-101699326D01*
X150089656Y-101702161D01*
X150183865Y-101865338D01*
X150183868Y-101865342D01*
X150185503Y-101868174D01*
X150187694Y-101870608D01*
X150187696Y-101870610D01*
X150313774Y-102010633D01*
X150315963Y-102013064D01*
X150473695Y-102127663D01*
X150651808Y-102206964D01*
X150655012Y-102207645D01*
X150839315Y-102246820D01*
X150839319Y-102246820D01*
X150842516Y-102247500D01*
X151037484Y-102247500D01*
X151040681Y-102246820D01*
X151040685Y-102246820D01*
X151224988Y-102207645D01*
X151228192Y-102206964D01*
X151406305Y-102127663D01*
X151564037Y-102013064D01*
X151566226Y-102010633D01*
X151692304Y-101870610D01*
X151692306Y-101870608D01*
X151694497Y-101868174D01*
X151696132Y-101865342D01*
X151696135Y-101865338D01*
X151790344Y-101702161D01*
X151791981Y-101699326D01*
X151792992Y-101696215D01*
X151792994Y-101696210D01*
X151851216Y-101517018D01*
X151851216Y-101517017D01*
X151852229Y-101513900D01*
X151872609Y-101320000D01*
X152547391Y-101320000D01*
X152567771Y-101513900D01*
X152568784Y-101517017D01*
X152568784Y-101517018D01*
X152627006Y-101696210D01*
X152627008Y-101696215D01*
X152628019Y-101699326D01*
X152629656Y-101702161D01*
X152723865Y-101865338D01*
X152723868Y-101865342D01*
X152725503Y-101868174D01*
X152727694Y-101870608D01*
X152727696Y-101870610D01*
X152853774Y-102010633D01*
X152855963Y-102013064D01*
X153013695Y-102127663D01*
X153191808Y-102206964D01*
X153195012Y-102207645D01*
X153379315Y-102246820D01*
X153379319Y-102246820D01*
X153382516Y-102247500D01*
X153577484Y-102247500D01*
X153580681Y-102246820D01*
X153580685Y-102246820D01*
X153764988Y-102207645D01*
X153768192Y-102206964D01*
X153946305Y-102127663D01*
X154104037Y-102013064D01*
X154106226Y-102010633D01*
X154232304Y-101870610D01*
X154232306Y-101870608D01*
X154234497Y-101868174D01*
X154236132Y-101865342D01*
X154236135Y-101865338D01*
X154330344Y-101702161D01*
X154331981Y-101699326D01*
X154332992Y-101696215D01*
X154332994Y-101696210D01*
X154391216Y-101517018D01*
X154391216Y-101517017D01*
X154392229Y-101513900D01*
X154412609Y-101320000D01*
X155087391Y-101320000D01*
X155107771Y-101513900D01*
X155108784Y-101517017D01*
X155108784Y-101517018D01*
X155167006Y-101696210D01*
X155167008Y-101696215D01*
X155168019Y-101699326D01*
X155169656Y-101702161D01*
X155263865Y-101865338D01*
X155263868Y-101865342D01*
X155265503Y-101868174D01*
X155267694Y-101870608D01*
X155267696Y-101870610D01*
X155393774Y-102010633D01*
X155395963Y-102013064D01*
X155553695Y-102127663D01*
X155731808Y-102206964D01*
X155735012Y-102207645D01*
X155919315Y-102246820D01*
X155919319Y-102246820D01*
X155922516Y-102247500D01*
X156117484Y-102247500D01*
X156120681Y-102246820D01*
X156120685Y-102246820D01*
X156304988Y-102207645D01*
X156308192Y-102206964D01*
X156486305Y-102127663D01*
X156644037Y-102013064D01*
X156646226Y-102010633D01*
X156772304Y-101870610D01*
X156772306Y-101870608D01*
X156774497Y-101868174D01*
X156776132Y-101865342D01*
X156776135Y-101865338D01*
X156870344Y-101702161D01*
X156871981Y-101699326D01*
X156872992Y-101696215D01*
X156872994Y-101696210D01*
X156910315Y-101581346D01*
X157538416Y-101581346D01*
X157574433Y-101706950D01*
X157576667Y-101712592D01*
X157668364Y-101891014D01*
X157671649Y-101896112D01*
X157796249Y-102053318D01*
X157800477Y-102057696D01*
X157953228Y-102187697D01*
X157958224Y-102191170D01*
X158133324Y-102289030D01*
X158138895Y-102291464D01*
X158294177Y-102341919D01*
X158303662Y-102341172D01*
X158306000Y-102338435D01*
X158306000Y-102331010D01*
X158814000Y-102331010D01*
X158817641Y-102339800D01*
X158821426Y-102341368D01*
X158940058Y-102308245D01*
X158945721Y-102306048D01*
X159124774Y-102215602D01*
X159129896Y-102212352D01*
X159287969Y-102088850D01*
X159292373Y-102084657D01*
X159423439Y-101932814D01*
X159426950Y-101927837D01*
X159526024Y-101753437D01*
X159528501Y-101747873D01*
X159582417Y-101585796D01*
X159581737Y-101576306D01*
X159579075Y-101574000D01*
X158826431Y-101574000D01*
X158817641Y-101577641D01*
X158814000Y-101586431D01*
X158814000Y-102331010D01*
X158306000Y-102331010D01*
X158306000Y-101586431D01*
X158302359Y-101577641D01*
X158293569Y-101574000D01*
X157548741Y-101574000D01*
X157539951Y-101577641D01*
X157538416Y-101581346D01*
X156910315Y-101581346D01*
X156931216Y-101517018D01*
X156931216Y-101517017D01*
X156932229Y-101513900D01*
X156952609Y-101320000D01*
X156938882Y-101189397D01*
X166732500Y-101189397D01*
X166732501Y-102560602D01*
X166743428Y-102634837D01*
X166798845Y-102747708D01*
X166887835Y-102836544D01*
X166892472Y-102838811D01*
X166892474Y-102838812D01*
X166981730Y-102882441D01*
X167000803Y-102891764D01*
X167005606Y-102892465D01*
X167005607Y-102892465D01*
X167028646Y-102895826D01*
X167074397Y-102902500D01*
X167758190Y-102902500D01*
X168445602Y-102902499D01*
X168519837Y-102891572D01*
X168549786Y-102876868D01*
X168602621Y-102850927D01*
X169688433Y-102850927D01*
X169690404Y-102855684D01*
X169744616Y-102891907D01*
X169749633Y-102894631D01*
X169939240Y-102976092D01*
X169944657Y-102977852D01*
X170145937Y-103023398D01*
X170151585Y-103024141D01*
X170357794Y-103032244D01*
X170363488Y-103031945D01*
X170567714Y-103002333D01*
X170573263Y-103001001D01*
X170768672Y-102934669D01*
X170773884Y-102932348D01*
X170906786Y-102857920D01*
X170912678Y-102850447D01*
X170912200Y-102846411D01*
X170308790Y-102243000D01*
X170300000Y-102239359D01*
X170291210Y-102243000D01*
X169692074Y-102842136D01*
X169688433Y-102850927D01*
X168602621Y-102850927D01*
X168632708Y-102836155D01*
X168649206Y-102819629D01*
X168717895Y-102750820D01*
X168721544Y-102747165D01*
X168752377Y-102684089D01*
X168774633Y-102638557D01*
X168774633Y-102638556D01*
X168776764Y-102634197D01*
X168787500Y-102560603D01*
X168787499Y-101847526D01*
X169141641Y-101847526D01*
X169155137Y-102053434D01*
X169156032Y-102059082D01*
X169206826Y-102259089D01*
X169208729Y-102264462D01*
X169295125Y-102451868D01*
X169297981Y-102456815D01*
X169316061Y-102482398D01*
X169324110Y-102487476D01*
X169329542Y-102486247D01*
X169932000Y-101883790D01*
X169935641Y-101875000D01*
X170664359Y-101875000D01*
X170668000Y-101883790D01*
X171268054Y-102483844D01*
X171276845Y-102487485D01*
X171280600Y-102485929D01*
X171357348Y-102348884D01*
X171359669Y-102343672D01*
X171426001Y-102148263D01*
X171427333Y-102142714D01*
X171457093Y-101937470D01*
X171457404Y-101933825D01*
X171458896Y-101876827D01*
X171458777Y-101873179D01*
X171457620Y-101860584D01*
X171807629Y-101860584D01*
X171813276Y-101927837D01*
X171824181Y-102057696D01*
X171824490Y-102061381D01*
X171880032Y-102255078D01*
X171972139Y-102434299D01*
X172097302Y-102592215D01*
X172099626Y-102594193D01*
X172099628Y-102594195D01*
X172211566Y-102689462D01*
X172250754Y-102722814D01*
X172426651Y-102821119D01*
X172429555Y-102822063D01*
X172429556Y-102822063D01*
X172615379Y-102882441D01*
X172615384Y-102882442D01*
X172618292Y-102883387D01*
X172818378Y-102907246D01*
X172821420Y-102907012D01*
X172821423Y-102907012D01*
X173016236Y-102892021D01*
X173016238Y-102892021D01*
X173019287Y-102891786D01*
X173213367Y-102837598D01*
X173216090Y-102836223D01*
X173216094Y-102836221D01*
X173390506Y-102748119D01*
X173393226Y-102746745D01*
X173395624Y-102744872D01*
X173395628Y-102744869D01*
X173498675Y-102664359D01*
X173552013Y-102622687D01*
X173683679Y-102470150D01*
X173744850Y-102362470D01*
X173781698Y-102297606D01*
X173781699Y-102297604D01*
X173783210Y-102294944D01*
X173846814Y-102103743D01*
X173848342Y-102091654D01*
X173871849Y-101905570D01*
X173871849Y-101905569D01*
X173872069Y-101903828D01*
X173872249Y-101891014D01*
X173872448Y-101876739D01*
X173872448Y-101876733D01*
X173872472Y-101875000D01*
X173872303Y-101873280D01*
X173872303Y-101873271D01*
X173854432Y-101691015D01*
X173852809Y-101674458D01*
X173794568Y-101481556D01*
X173742926Y-101384431D01*
X173701403Y-101306337D01*
X173701401Y-101306334D01*
X173699968Y-101303639D01*
X173572612Y-101147485D01*
X173417351Y-101019042D01*
X173414667Y-101017591D01*
X173414663Y-101017588D01*
X173272413Y-100940674D01*
X173240099Y-100923202D01*
X173141517Y-100892686D01*
X173050522Y-100864518D01*
X173050519Y-100864517D01*
X173047607Y-100863616D01*
X173044574Y-100863297D01*
X173044573Y-100863297D01*
X172989751Y-100857535D01*
X172847208Y-100842553D01*
X172844175Y-100842829D01*
X172844171Y-100842829D01*
X172756987Y-100850764D01*
X172646534Y-100860816D01*
X172453229Y-100917709D01*
X172414724Y-100937839D01*
X172277360Y-101009650D01*
X172277357Y-101009652D01*
X172274656Y-101011064D01*
X172117617Y-101137327D01*
X171988093Y-101291687D01*
X171958709Y-101345136D01*
X171897153Y-101457107D01*
X171891018Y-101468266D01*
X171830090Y-101660337D01*
X171828835Y-101671530D01*
X171809094Y-101847526D01*
X171807629Y-101860584D01*
X171457620Y-101860584D01*
X171439799Y-101666654D01*
X171438758Y-101661036D01*
X171382745Y-101462429D01*
X171380702Y-101457107D01*
X171289429Y-101272021D01*
X171286446Y-101267155D01*
X171285595Y-101266015D01*
X171277418Y-101261150D01*
X171271578Y-101262633D01*
X170668000Y-101866210D01*
X170664359Y-101875000D01*
X169935641Y-101875000D01*
X169932000Y-101866210D01*
X169330460Y-101264670D01*
X169321669Y-101261029D01*
X169318205Y-101262464D01*
X169230606Y-101428961D01*
X169228427Y-101434221D01*
X169167230Y-101631311D01*
X169166046Y-101636882D01*
X169141790Y-101841814D01*
X169141641Y-101847526D01*
X168787499Y-101847526D01*
X168787499Y-101189398D01*
X168776572Y-101115163D01*
X168721155Y-101002292D01*
X168632165Y-100913456D01*
X168627528Y-100911189D01*
X168627526Y-100911188D01*
X168605276Y-100900312D01*
X169688245Y-100900312D01*
X169688876Y-100904665D01*
X170291210Y-101507000D01*
X170300000Y-101510641D01*
X170308790Y-101507000D01*
X170907654Y-100908136D01*
X170911295Y-100899345D01*
X170909473Y-100894946D01*
X170828571Y-100843901D01*
X170823493Y-100841313D01*
X170631816Y-100764842D01*
X170626349Y-100763223D01*
X170423949Y-100722963D01*
X170418285Y-100722368D01*
X170211932Y-100719666D01*
X170206245Y-100720114D01*
X170002873Y-100755060D01*
X169997350Y-100756539D01*
X169803750Y-100827962D01*
X169798601Y-100830418D01*
X169693939Y-100892686D01*
X169688245Y-100900312D01*
X168605276Y-100900312D01*
X168523557Y-100860367D01*
X168523556Y-100860367D01*
X168519197Y-100858236D01*
X168514394Y-100857535D01*
X168514393Y-100857535D01*
X168491354Y-100854174D01*
X168445603Y-100847500D01*
X167761810Y-100847500D01*
X167074398Y-100847501D01*
X167000163Y-100858428D01*
X166995803Y-100860569D01*
X166995802Y-100860569D01*
X166990246Y-100863297D01*
X166887292Y-100913845D01*
X166883645Y-100917498D01*
X166883644Y-100917499D01*
X166860509Y-100940674D01*
X166798456Y-101002835D01*
X166796189Y-101007472D01*
X166796188Y-101007474D01*
X166745367Y-101111443D01*
X166743236Y-101115803D01*
X166742535Y-101120606D01*
X166742535Y-101120607D01*
X166740375Y-101135412D01*
X166732500Y-101189397D01*
X156938882Y-101189397D01*
X156932229Y-101126100D01*
X156927467Y-101111443D01*
X156908851Y-101054149D01*
X157538525Y-101054149D01*
X157539338Y-101063630D01*
X157542152Y-101066000D01*
X158293569Y-101066000D01*
X158302359Y-101062359D01*
X158306000Y-101053569D01*
X158814000Y-101053569D01*
X158817641Y-101062359D01*
X158826431Y-101066000D01*
X159571921Y-101066000D01*
X159580711Y-101062359D01*
X159582181Y-101058810D01*
X159540071Y-100919336D01*
X159537751Y-100913708D01*
X159443582Y-100736601D01*
X159440216Y-100731536D01*
X159313438Y-100576091D01*
X159309149Y-100571773D01*
X159154598Y-100443916D01*
X159149549Y-100440511D01*
X158973112Y-100345112D01*
X158967494Y-100342750D01*
X158825877Y-100298911D01*
X158816402Y-100299791D01*
X158814000Y-100302683D01*
X158814000Y-101053569D01*
X158306000Y-101053569D01*
X158306000Y-100308439D01*
X158302359Y-100299649D01*
X158298732Y-100298147D01*
X158166190Y-100337156D01*
X158160544Y-100339437D01*
X157982781Y-100432369D01*
X157977698Y-100435695D01*
X157821369Y-100561387D01*
X157817021Y-100565645D01*
X157688086Y-100719303D01*
X157684649Y-100724323D01*
X157588018Y-100900095D01*
X157585619Y-100905693D01*
X157538525Y-101054149D01*
X156908851Y-101054149D01*
X156872994Y-100943790D01*
X156872992Y-100943785D01*
X156871981Y-100940674D01*
X156825616Y-100860367D01*
X156776135Y-100774662D01*
X156776132Y-100774658D01*
X156774497Y-100771826D01*
X156760733Y-100756539D01*
X156646226Y-100629367D01*
X156646225Y-100629366D01*
X156644037Y-100626936D01*
X156486305Y-100512337D01*
X156308192Y-100433036D01*
X156292941Y-100429794D01*
X156120685Y-100393180D01*
X156120681Y-100393180D01*
X156117484Y-100392500D01*
X155922516Y-100392500D01*
X155919319Y-100393180D01*
X155919315Y-100393180D01*
X155747059Y-100429794D01*
X155731808Y-100433036D01*
X155553696Y-100512337D01*
X155551051Y-100514259D01*
X155551047Y-100514261D01*
X155398612Y-100625011D01*
X155398610Y-100625013D01*
X155395963Y-100626936D01*
X155317962Y-100713565D01*
X155279268Y-100756539D01*
X155265503Y-100771826D01*
X155263868Y-100774658D01*
X155263865Y-100774662D01*
X155214384Y-100860367D01*
X155168019Y-100940674D01*
X155167008Y-100943785D01*
X155167006Y-100943790D01*
X155112533Y-101111443D01*
X155107771Y-101126100D01*
X155087391Y-101320000D01*
X154412609Y-101320000D01*
X154392229Y-101126100D01*
X154387467Y-101111443D01*
X154332994Y-100943790D01*
X154332992Y-100943785D01*
X154331981Y-100940674D01*
X154285616Y-100860367D01*
X154236135Y-100774662D01*
X154236132Y-100774658D01*
X154234497Y-100771826D01*
X154220733Y-100756539D01*
X154106226Y-100629367D01*
X154106225Y-100629366D01*
X154104037Y-100626936D01*
X153946305Y-100512337D01*
X153768192Y-100433036D01*
X153752941Y-100429794D01*
X153580685Y-100393180D01*
X153580681Y-100393180D01*
X153577484Y-100392500D01*
X153382516Y-100392500D01*
X153379319Y-100393180D01*
X153379315Y-100393180D01*
X153207059Y-100429794D01*
X153191808Y-100433036D01*
X153013696Y-100512337D01*
X153011051Y-100514259D01*
X153011047Y-100514261D01*
X152858612Y-100625011D01*
X152858610Y-100625013D01*
X152855963Y-100626936D01*
X152777962Y-100713565D01*
X152739268Y-100756539D01*
X152725503Y-100771826D01*
X152723868Y-100774658D01*
X152723865Y-100774662D01*
X152674384Y-100860367D01*
X152628019Y-100940674D01*
X152627008Y-100943785D01*
X152627006Y-100943790D01*
X152572533Y-101111443D01*
X152567771Y-101126100D01*
X152547391Y-101320000D01*
X151872609Y-101320000D01*
X151852229Y-101126100D01*
X151847467Y-101111443D01*
X151792994Y-100943790D01*
X151792992Y-100943785D01*
X151791981Y-100940674D01*
X151745616Y-100860367D01*
X151696135Y-100774662D01*
X151696132Y-100774658D01*
X151694497Y-100771826D01*
X151680733Y-100756539D01*
X151566226Y-100629367D01*
X151566225Y-100629366D01*
X151564037Y-100626936D01*
X151406305Y-100512337D01*
X151228192Y-100433036D01*
X151212941Y-100429794D01*
X151040685Y-100393180D01*
X151040681Y-100393180D01*
X151037484Y-100392500D01*
X150842516Y-100392500D01*
X150839319Y-100393180D01*
X150839315Y-100393180D01*
X150667059Y-100429794D01*
X150651808Y-100433036D01*
X150473696Y-100512337D01*
X150471051Y-100514259D01*
X150471047Y-100514261D01*
X150318612Y-100625011D01*
X150318610Y-100625013D01*
X150315963Y-100626936D01*
X150237962Y-100713565D01*
X150199268Y-100756539D01*
X150185503Y-100771826D01*
X150183868Y-100774658D01*
X150183865Y-100774662D01*
X150134384Y-100860367D01*
X150088019Y-100940674D01*
X150087008Y-100943785D01*
X150087006Y-100943790D01*
X150032533Y-101111443D01*
X150027771Y-101126100D01*
X150007391Y-101320000D01*
X149332609Y-101320000D01*
X149312229Y-101126100D01*
X149307467Y-101111443D01*
X149252994Y-100943790D01*
X149252992Y-100943785D01*
X149251981Y-100940674D01*
X149205616Y-100860367D01*
X149156135Y-100774662D01*
X149156132Y-100774658D01*
X149154497Y-100771826D01*
X149140733Y-100756539D01*
X149026226Y-100629367D01*
X149026225Y-100629366D01*
X149024037Y-100626936D01*
X148866305Y-100512337D01*
X148688192Y-100433036D01*
X148672941Y-100429794D01*
X148500685Y-100393180D01*
X148500681Y-100393180D01*
X148497484Y-100392500D01*
X148302516Y-100392500D01*
X148299319Y-100393180D01*
X148299315Y-100393180D01*
X148127059Y-100429794D01*
X148111808Y-100433036D01*
X147933696Y-100512337D01*
X147931051Y-100514259D01*
X147931047Y-100514261D01*
X147778612Y-100625011D01*
X147778610Y-100625013D01*
X147775963Y-100626936D01*
X147697962Y-100713565D01*
X147659268Y-100756539D01*
X147645503Y-100771826D01*
X147643868Y-100774658D01*
X147643865Y-100774662D01*
X147594384Y-100860367D01*
X147548019Y-100940674D01*
X147547008Y-100943785D01*
X147547006Y-100943790D01*
X147492533Y-101111443D01*
X147487771Y-101126100D01*
X147467391Y-101320000D01*
X146792609Y-101320000D01*
X146772229Y-101126100D01*
X146767467Y-101111443D01*
X146712994Y-100943790D01*
X146712992Y-100943785D01*
X146711981Y-100940674D01*
X146665616Y-100860367D01*
X146616135Y-100774662D01*
X146616132Y-100774658D01*
X146614497Y-100771826D01*
X146600733Y-100756539D01*
X146486226Y-100629367D01*
X146486225Y-100629366D01*
X146484037Y-100626936D01*
X146326305Y-100512337D01*
X146148192Y-100433036D01*
X146132941Y-100429794D01*
X145960685Y-100393180D01*
X145960681Y-100393180D01*
X145957484Y-100392500D01*
X145762516Y-100392500D01*
X145759319Y-100393180D01*
X145759315Y-100393180D01*
X145587059Y-100429794D01*
X145571808Y-100433036D01*
X145393696Y-100512337D01*
X145391051Y-100514259D01*
X145391047Y-100514261D01*
X145238612Y-100625011D01*
X145238610Y-100625013D01*
X145235963Y-100626936D01*
X145157962Y-100713565D01*
X145119268Y-100756539D01*
X145105503Y-100771826D01*
X145103868Y-100774658D01*
X145103865Y-100774662D01*
X145054384Y-100860367D01*
X145008019Y-100940674D01*
X145007008Y-100943785D01*
X145007006Y-100943790D01*
X144952533Y-101111443D01*
X144947771Y-101126100D01*
X144927391Y-101320000D01*
X144252609Y-101320000D01*
X144232229Y-101126100D01*
X144227467Y-101111443D01*
X144172994Y-100943790D01*
X144172992Y-100943785D01*
X144171981Y-100940674D01*
X144125616Y-100860367D01*
X144076135Y-100774662D01*
X144076132Y-100774658D01*
X144074497Y-100771826D01*
X144060733Y-100756539D01*
X143946226Y-100629367D01*
X143946225Y-100629366D01*
X143944037Y-100626936D01*
X143786305Y-100512337D01*
X143608192Y-100433036D01*
X143592941Y-100429794D01*
X143420685Y-100393180D01*
X143420681Y-100393180D01*
X143417484Y-100392500D01*
X143222516Y-100392500D01*
X143219319Y-100393180D01*
X143219315Y-100393180D01*
X143047059Y-100429794D01*
X143031808Y-100433036D01*
X142853696Y-100512337D01*
X142851051Y-100514259D01*
X142851047Y-100514261D01*
X142698612Y-100625011D01*
X142698610Y-100625013D01*
X142695963Y-100626936D01*
X142617962Y-100713565D01*
X142579268Y-100756539D01*
X142565503Y-100771826D01*
X142563868Y-100774658D01*
X142563865Y-100774662D01*
X142514384Y-100860367D01*
X142468019Y-100940674D01*
X142467008Y-100943785D01*
X142467006Y-100943790D01*
X142412533Y-101111443D01*
X142407771Y-101126100D01*
X142387391Y-101320000D01*
X133059495Y-101320000D01*
X133059473Y-101319946D01*
X132978571Y-101268901D01*
X132973493Y-101266313D01*
X132781816Y-101189842D01*
X132776349Y-101188223D01*
X132573949Y-101147963D01*
X132568285Y-101147368D01*
X132361932Y-101144666D01*
X132356245Y-101145114D01*
X132152873Y-101180060D01*
X132147350Y-101181539D01*
X131953750Y-101252962D01*
X131948601Y-101255418D01*
X131843939Y-101317686D01*
X131838245Y-101325312D01*
X130913437Y-101325312D01*
X130901922Y-101308078D01*
X130859748Y-101279898D01*
X130853715Y-101278698D01*
X130853713Y-101278697D01*
X130825569Y-101273099D01*
X130822558Y-101272500D01*
X128997442Y-101272500D01*
X128994431Y-101273099D01*
X128966287Y-101278697D01*
X128966285Y-101278698D01*
X128960252Y-101279898D01*
X128918078Y-101308078D01*
X128889898Y-101350252D01*
X128882500Y-101387442D01*
X128882500Y-103212558D01*
X125761502Y-103212558D01*
X125743368Y-103144881D01*
X125736494Y-103119227D01*
X125734364Y-103103051D01*
X125734364Y-94098327D01*
X128866032Y-94098327D01*
X128868136Y-94103405D01*
X128918368Y-94138577D01*
X128923079Y-94141298D01*
X129116996Y-94231723D01*
X129122105Y-94233583D01*
X129328777Y-94288960D01*
X129334131Y-94289904D01*
X129547280Y-94308552D01*
X129552720Y-94308552D01*
X129765869Y-94289904D01*
X129771223Y-94288960D01*
X129977895Y-94233583D01*
X129983004Y-94231723D01*
X130176921Y-94141298D01*
X130181632Y-94138577D01*
X130228932Y-94105459D01*
X130233475Y-94098327D01*
X135366032Y-94098327D01*
X135368136Y-94103405D01*
X135418368Y-94138577D01*
X135423079Y-94141298D01*
X135616996Y-94231723D01*
X135622105Y-94233583D01*
X135828777Y-94288960D01*
X135834131Y-94289904D01*
X136047280Y-94308552D01*
X136052720Y-94308552D01*
X136265869Y-94289904D01*
X136271223Y-94288960D01*
X136477895Y-94233583D01*
X136483004Y-94231723D01*
X136676921Y-94141298D01*
X136681632Y-94138577D01*
X136728932Y-94105459D01*
X136734045Y-94097433D01*
X136732855Y-94092065D01*
X136058790Y-93418000D01*
X136050000Y-93414359D01*
X136041210Y-93418000D01*
X135369673Y-94089537D01*
X135366032Y-94098327D01*
X130233475Y-94098327D01*
X130234045Y-94097433D01*
X130232855Y-94092065D01*
X129558790Y-93418000D01*
X129550000Y-93414359D01*
X129541210Y-93418000D01*
X128869673Y-94089537D01*
X128866032Y-94098327D01*
X125734364Y-94098327D01*
X125734364Y-93052720D01*
X128291448Y-93052720D01*
X128310096Y-93265869D01*
X128311040Y-93271223D01*
X128366417Y-93477895D01*
X128368277Y-93483004D01*
X128458702Y-93676921D01*
X128461423Y-93681632D01*
X128494541Y-93728932D01*
X128502567Y-93734045D01*
X128507935Y-93732855D01*
X129182000Y-93058790D01*
X129185641Y-93050000D01*
X129914359Y-93050000D01*
X129918000Y-93058790D01*
X130589537Y-93730327D01*
X130598327Y-93733968D01*
X130603405Y-93731864D01*
X130638577Y-93681632D01*
X130641298Y-93676921D01*
X130731723Y-93483004D01*
X130733583Y-93477895D01*
X130788960Y-93271223D01*
X130789904Y-93265869D01*
X130808552Y-93052720D01*
X134791448Y-93052720D01*
X134810096Y-93265869D01*
X134811040Y-93271223D01*
X134866417Y-93477895D01*
X134868277Y-93483004D01*
X134958702Y-93676921D01*
X134961423Y-93681632D01*
X134994541Y-93728932D01*
X135002567Y-93734045D01*
X135007935Y-93732855D01*
X135682000Y-93058790D01*
X135685641Y-93050000D01*
X136414359Y-93050000D01*
X136418000Y-93058790D01*
X137089537Y-93730327D01*
X137098327Y-93733968D01*
X137103405Y-93731864D01*
X137125716Y-93700000D01*
X142387391Y-93700000D01*
X142407771Y-93893900D01*
X142408784Y-93897017D01*
X142408784Y-93897018D01*
X142467006Y-94076210D01*
X142467008Y-94076215D01*
X142468019Y-94079326D01*
X142469656Y-94082161D01*
X142563865Y-94245338D01*
X142563868Y-94245342D01*
X142565503Y-94248174D01*
X142695963Y-94393064D01*
X142853695Y-94507663D01*
X143031808Y-94586964D01*
X143035012Y-94587645D01*
X143219315Y-94626820D01*
X143219319Y-94626820D01*
X143222516Y-94627500D01*
X143417484Y-94627500D01*
X143420681Y-94626820D01*
X143420685Y-94626820D01*
X143604988Y-94587645D01*
X143608192Y-94586964D01*
X143786305Y-94507663D01*
X143944037Y-94393064D01*
X144074497Y-94248174D01*
X144076132Y-94245342D01*
X144076135Y-94245338D01*
X144170344Y-94082161D01*
X144171981Y-94079326D01*
X144172992Y-94076215D01*
X144172994Y-94076210D01*
X144231216Y-93897018D01*
X144231216Y-93897017D01*
X144232229Y-93893900D01*
X144252609Y-93700000D01*
X144927391Y-93700000D01*
X144947771Y-93893900D01*
X144948784Y-93897017D01*
X144948784Y-93897018D01*
X145007006Y-94076210D01*
X145007008Y-94076215D01*
X145008019Y-94079326D01*
X145009656Y-94082161D01*
X145103865Y-94245338D01*
X145103868Y-94245342D01*
X145105503Y-94248174D01*
X145235963Y-94393064D01*
X145393695Y-94507663D01*
X145571808Y-94586964D01*
X145575012Y-94587645D01*
X145759315Y-94626820D01*
X145759319Y-94626820D01*
X145762516Y-94627500D01*
X145957484Y-94627500D01*
X145960681Y-94626820D01*
X145960685Y-94626820D01*
X146144988Y-94587645D01*
X146148192Y-94586964D01*
X146326305Y-94507663D01*
X146484037Y-94393064D01*
X146614497Y-94248174D01*
X146616132Y-94245342D01*
X146616135Y-94245338D01*
X146710344Y-94082161D01*
X146711981Y-94079326D01*
X146712992Y-94076215D01*
X146712994Y-94076210D01*
X146771216Y-93897018D01*
X146771216Y-93897017D01*
X146772229Y-93893900D01*
X146792609Y-93700000D01*
X147467391Y-93700000D01*
X147487771Y-93893900D01*
X147488784Y-93897017D01*
X147488784Y-93897018D01*
X147547006Y-94076210D01*
X147547008Y-94076215D01*
X147548019Y-94079326D01*
X147549656Y-94082161D01*
X147643865Y-94245338D01*
X147643868Y-94245342D01*
X147645503Y-94248174D01*
X147775963Y-94393064D01*
X147933695Y-94507663D01*
X148111808Y-94586964D01*
X148115012Y-94587645D01*
X148299315Y-94626820D01*
X148299319Y-94626820D01*
X148302516Y-94627500D01*
X148497484Y-94627500D01*
X148500681Y-94626820D01*
X148500685Y-94626820D01*
X148684988Y-94587645D01*
X148688192Y-94586964D01*
X148866305Y-94507663D01*
X149024037Y-94393064D01*
X149154497Y-94248174D01*
X149156132Y-94245342D01*
X149156135Y-94245338D01*
X149250344Y-94082161D01*
X149251981Y-94079326D01*
X149252992Y-94076215D01*
X149252994Y-94076210D01*
X149311216Y-93897018D01*
X149311216Y-93897017D01*
X149312229Y-93893900D01*
X149332609Y-93700000D01*
X150007391Y-93700000D01*
X150027771Y-93893900D01*
X150028784Y-93897017D01*
X150028784Y-93897018D01*
X150087006Y-94076210D01*
X150087008Y-94076215D01*
X150088019Y-94079326D01*
X150089656Y-94082161D01*
X150183865Y-94245338D01*
X150183868Y-94245342D01*
X150185503Y-94248174D01*
X150315963Y-94393064D01*
X150473695Y-94507663D01*
X150651808Y-94586964D01*
X150655012Y-94587645D01*
X150839315Y-94626820D01*
X150839319Y-94626820D01*
X150842516Y-94627500D01*
X151037484Y-94627500D01*
X151040681Y-94626820D01*
X151040685Y-94626820D01*
X151224988Y-94587645D01*
X151228192Y-94586964D01*
X151406305Y-94507663D01*
X151564037Y-94393064D01*
X151694497Y-94248174D01*
X151696132Y-94245342D01*
X151696135Y-94245338D01*
X151790344Y-94082161D01*
X151791981Y-94079326D01*
X151792992Y-94076215D01*
X151792994Y-94076210D01*
X151851216Y-93897018D01*
X151851216Y-93897017D01*
X151852229Y-93893900D01*
X151872609Y-93700000D01*
X152547391Y-93700000D01*
X152567771Y-93893900D01*
X152568784Y-93897017D01*
X152568784Y-93897018D01*
X152627006Y-94076210D01*
X152627008Y-94076215D01*
X152628019Y-94079326D01*
X152629656Y-94082161D01*
X152723865Y-94245338D01*
X152723868Y-94245342D01*
X152725503Y-94248174D01*
X152855963Y-94393064D01*
X153013695Y-94507663D01*
X153191808Y-94586964D01*
X153195012Y-94587645D01*
X153379315Y-94626820D01*
X153379319Y-94626820D01*
X153382516Y-94627500D01*
X153577484Y-94627500D01*
X153580681Y-94626820D01*
X153580685Y-94626820D01*
X153764988Y-94587645D01*
X153768192Y-94586964D01*
X153946305Y-94507663D01*
X154104037Y-94393064D01*
X154234497Y-94248174D01*
X154236132Y-94245342D01*
X154236135Y-94245338D01*
X154330344Y-94082161D01*
X154331981Y-94079326D01*
X154332992Y-94076215D01*
X154332994Y-94076210D01*
X154391216Y-93897018D01*
X154391216Y-93897017D01*
X154392229Y-93893900D01*
X154412609Y-93700000D01*
X155087391Y-93700000D01*
X155107771Y-93893900D01*
X155108784Y-93897017D01*
X155108784Y-93897018D01*
X155167006Y-94076210D01*
X155167008Y-94076215D01*
X155168019Y-94079326D01*
X155169656Y-94082161D01*
X155263865Y-94245338D01*
X155263868Y-94245342D01*
X155265503Y-94248174D01*
X155395963Y-94393064D01*
X155553695Y-94507663D01*
X155731808Y-94586964D01*
X155735012Y-94587645D01*
X155919315Y-94626820D01*
X155919319Y-94626820D01*
X155922516Y-94627500D01*
X156117484Y-94627500D01*
X156120681Y-94626820D01*
X156120685Y-94626820D01*
X156304988Y-94587645D01*
X156308192Y-94586964D01*
X156475311Y-94512558D01*
X157632500Y-94512558D01*
X157639898Y-94549748D01*
X157668078Y-94591922D01*
X157710252Y-94620102D01*
X157716285Y-94621302D01*
X157716287Y-94621303D01*
X157742384Y-94626494D01*
X157747442Y-94627500D01*
X159372558Y-94627500D01*
X159377616Y-94626494D01*
X159403713Y-94621303D01*
X159403715Y-94621302D01*
X159409748Y-94620102D01*
X159451922Y-94591922D01*
X159480102Y-94549748D01*
X159487500Y-94512558D01*
X159487500Y-94098327D01*
X165266032Y-94098327D01*
X165268136Y-94103405D01*
X165318368Y-94138577D01*
X165323079Y-94141298D01*
X165516996Y-94231723D01*
X165522105Y-94233583D01*
X165728777Y-94288960D01*
X165734131Y-94289904D01*
X165947280Y-94308552D01*
X165952720Y-94308552D01*
X166165869Y-94289904D01*
X166171223Y-94288960D01*
X166377895Y-94233583D01*
X166383004Y-94231723D01*
X166576921Y-94141298D01*
X166581632Y-94138577D01*
X166628932Y-94105459D01*
X166633475Y-94098327D01*
X171766032Y-94098327D01*
X171768136Y-94103405D01*
X171818368Y-94138577D01*
X171823079Y-94141298D01*
X172016996Y-94231723D01*
X172022105Y-94233583D01*
X172228777Y-94288960D01*
X172234131Y-94289904D01*
X172447280Y-94308552D01*
X172452720Y-94308552D01*
X172665869Y-94289904D01*
X172671223Y-94288960D01*
X172877895Y-94233583D01*
X172883004Y-94231723D01*
X173076921Y-94141298D01*
X173081632Y-94138577D01*
X173128932Y-94105459D01*
X173134045Y-94097433D01*
X173132855Y-94092065D01*
X172458790Y-93418000D01*
X172450000Y-93414359D01*
X172441210Y-93418000D01*
X171769673Y-94089537D01*
X171766032Y-94098327D01*
X166633475Y-94098327D01*
X166634045Y-94097433D01*
X166632855Y-94092065D01*
X165958790Y-93418000D01*
X165950000Y-93414359D01*
X165941210Y-93418000D01*
X165269673Y-94089537D01*
X165266032Y-94098327D01*
X159487500Y-94098327D01*
X159487500Y-93052720D01*
X164691448Y-93052720D01*
X164710096Y-93265869D01*
X164711040Y-93271223D01*
X164766417Y-93477895D01*
X164768277Y-93483004D01*
X164858702Y-93676921D01*
X164861423Y-93681632D01*
X164894541Y-93728932D01*
X164902567Y-93734045D01*
X164907935Y-93732855D01*
X165582000Y-93058790D01*
X165585641Y-93050000D01*
X166314359Y-93050000D01*
X166318000Y-93058790D01*
X166989537Y-93730327D01*
X166998327Y-93733968D01*
X167003405Y-93731864D01*
X167038577Y-93681632D01*
X167041298Y-93676921D01*
X167131723Y-93483004D01*
X167133583Y-93477895D01*
X167188960Y-93271223D01*
X167189904Y-93265869D01*
X167208552Y-93052720D01*
X171191448Y-93052720D01*
X171210096Y-93265869D01*
X171211040Y-93271223D01*
X171266417Y-93477895D01*
X171268277Y-93483004D01*
X171358702Y-93676921D01*
X171361423Y-93681632D01*
X171394541Y-93728932D01*
X171402567Y-93734045D01*
X171407935Y-93732855D01*
X172082000Y-93058790D01*
X172085641Y-93050000D01*
X172814359Y-93050000D01*
X172818000Y-93058790D01*
X173489537Y-93730327D01*
X173498327Y-93733968D01*
X173503405Y-93731864D01*
X173538577Y-93681632D01*
X173541298Y-93676921D01*
X173631723Y-93483004D01*
X173633583Y-93477895D01*
X173688960Y-93271223D01*
X173689904Y-93265869D01*
X173708552Y-93052720D01*
X173708552Y-93047280D01*
X173689904Y-92834131D01*
X173688960Y-92828777D01*
X173633583Y-92622105D01*
X173631723Y-92616996D01*
X173541298Y-92423079D01*
X173538577Y-92418368D01*
X173505459Y-92371068D01*
X173497433Y-92365955D01*
X173492065Y-92367145D01*
X172818000Y-93041210D01*
X172814359Y-93050000D01*
X172085641Y-93050000D01*
X172082000Y-93041210D01*
X171410463Y-92369673D01*
X171401673Y-92366032D01*
X171396595Y-92368136D01*
X171361423Y-92418368D01*
X171358702Y-92423079D01*
X171268277Y-92616996D01*
X171266417Y-92622105D01*
X171211040Y-92828777D01*
X171210096Y-92834131D01*
X171191448Y-93047280D01*
X171191448Y-93052720D01*
X167208552Y-93052720D01*
X167208552Y-93047280D01*
X167189904Y-92834131D01*
X167188960Y-92828777D01*
X167133583Y-92622105D01*
X167131723Y-92616996D01*
X167041298Y-92423079D01*
X167038577Y-92418368D01*
X167005459Y-92371068D01*
X166997433Y-92365955D01*
X166992065Y-92367145D01*
X166318000Y-93041210D01*
X166314359Y-93050000D01*
X165585641Y-93050000D01*
X165582000Y-93041210D01*
X164910463Y-92369673D01*
X164901673Y-92366032D01*
X164896595Y-92368136D01*
X164861423Y-92418368D01*
X164858702Y-92423079D01*
X164768277Y-92616996D01*
X164766417Y-92622105D01*
X164711040Y-92828777D01*
X164710096Y-92834131D01*
X164691448Y-93047280D01*
X164691448Y-93052720D01*
X159487500Y-93052720D01*
X159487500Y-92887442D01*
X159480102Y-92850252D01*
X159451922Y-92808078D01*
X159409748Y-92779898D01*
X159403715Y-92778698D01*
X159403713Y-92778697D01*
X159375569Y-92773099D01*
X159372558Y-92772500D01*
X157747442Y-92772500D01*
X157744431Y-92773099D01*
X157716287Y-92778697D01*
X157716285Y-92778698D01*
X157710252Y-92779898D01*
X157668078Y-92808078D01*
X157639898Y-92850252D01*
X157632500Y-92887442D01*
X157632500Y-94512558D01*
X156475311Y-94512558D01*
X156486305Y-94507663D01*
X156644037Y-94393064D01*
X156774497Y-94248174D01*
X156776132Y-94245342D01*
X156776135Y-94245338D01*
X156870344Y-94082161D01*
X156871981Y-94079326D01*
X156872992Y-94076215D01*
X156872994Y-94076210D01*
X156931216Y-93897018D01*
X156931216Y-93897017D01*
X156932229Y-93893900D01*
X156952609Y-93700000D01*
X156932229Y-93506100D01*
X156902421Y-93414359D01*
X156872994Y-93323790D01*
X156872992Y-93323785D01*
X156871981Y-93320674D01*
X156843431Y-93271223D01*
X156776135Y-93154662D01*
X156776132Y-93154658D01*
X156774497Y-93151826D01*
X156644037Y-93006936D01*
X156486305Y-92892337D01*
X156308192Y-92813036D01*
X156268781Y-92804659D01*
X156120685Y-92773180D01*
X156120681Y-92773180D01*
X156117484Y-92772500D01*
X155922516Y-92772500D01*
X155919319Y-92773180D01*
X155919315Y-92773180D01*
X155771219Y-92804659D01*
X155731808Y-92813036D01*
X155553696Y-92892337D01*
X155551051Y-92894259D01*
X155551047Y-92894261D01*
X155398612Y-93005011D01*
X155398610Y-93005013D01*
X155395963Y-93006936D01*
X155265503Y-93151826D01*
X155263868Y-93154658D01*
X155263865Y-93154662D01*
X155196569Y-93271223D01*
X155168019Y-93320674D01*
X155167008Y-93323785D01*
X155167006Y-93323790D01*
X155137579Y-93414359D01*
X155107771Y-93506100D01*
X155087391Y-93700000D01*
X154412609Y-93700000D01*
X154392229Y-93506100D01*
X154362421Y-93414359D01*
X154332994Y-93323790D01*
X154332992Y-93323785D01*
X154331981Y-93320674D01*
X154303431Y-93271223D01*
X154236135Y-93154662D01*
X154236132Y-93154658D01*
X154234497Y-93151826D01*
X154104037Y-93006936D01*
X153946305Y-92892337D01*
X153768192Y-92813036D01*
X153728781Y-92804659D01*
X153580685Y-92773180D01*
X153580681Y-92773180D01*
X153577484Y-92772500D01*
X153382516Y-92772500D01*
X153379319Y-92773180D01*
X153379315Y-92773180D01*
X153231219Y-92804659D01*
X153191808Y-92813036D01*
X153013696Y-92892337D01*
X153011051Y-92894259D01*
X153011047Y-92894261D01*
X152858612Y-93005011D01*
X152858610Y-93005013D01*
X152855963Y-93006936D01*
X152725503Y-93151826D01*
X152723868Y-93154658D01*
X152723865Y-93154662D01*
X152656569Y-93271223D01*
X152628019Y-93320674D01*
X152627008Y-93323785D01*
X152627006Y-93323790D01*
X152597579Y-93414359D01*
X152567771Y-93506100D01*
X152547391Y-93700000D01*
X151872609Y-93700000D01*
X151852229Y-93506100D01*
X151822421Y-93414359D01*
X151792994Y-93323790D01*
X151792992Y-93323785D01*
X151791981Y-93320674D01*
X151763431Y-93271223D01*
X151696135Y-93154662D01*
X151696132Y-93154658D01*
X151694497Y-93151826D01*
X151564037Y-93006936D01*
X151406305Y-92892337D01*
X151228192Y-92813036D01*
X151188781Y-92804659D01*
X151040685Y-92773180D01*
X151040681Y-92773180D01*
X151037484Y-92772500D01*
X150842516Y-92772500D01*
X150839319Y-92773180D01*
X150839315Y-92773180D01*
X150691219Y-92804659D01*
X150651808Y-92813036D01*
X150473696Y-92892337D01*
X150471051Y-92894259D01*
X150471047Y-92894261D01*
X150318612Y-93005011D01*
X150318610Y-93005013D01*
X150315963Y-93006936D01*
X150185503Y-93151826D01*
X150183868Y-93154658D01*
X150183865Y-93154662D01*
X150116569Y-93271223D01*
X150088019Y-93320674D01*
X150087008Y-93323785D01*
X150087006Y-93323790D01*
X150057579Y-93414359D01*
X150027771Y-93506100D01*
X150007391Y-93700000D01*
X149332609Y-93700000D01*
X149312229Y-93506100D01*
X149282421Y-93414359D01*
X149252994Y-93323790D01*
X149252992Y-93323785D01*
X149251981Y-93320674D01*
X149223431Y-93271223D01*
X149156135Y-93154662D01*
X149156132Y-93154658D01*
X149154497Y-93151826D01*
X149024037Y-93006936D01*
X148866305Y-92892337D01*
X148688192Y-92813036D01*
X148648781Y-92804659D01*
X148500685Y-92773180D01*
X148500681Y-92773180D01*
X148497484Y-92772500D01*
X148302516Y-92772500D01*
X148299319Y-92773180D01*
X148299315Y-92773180D01*
X148151219Y-92804659D01*
X148111808Y-92813036D01*
X147933696Y-92892337D01*
X147931051Y-92894259D01*
X147931047Y-92894261D01*
X147778612Y-93005011D01*
X147778610Y-93005013D01*
X147775963Y-93006936D01*
X147645503Y-93151826D01*
X147643868Y-93154658D01*
X147643865Y-93154662D01*
X147576569Y-93271223D01*
X147548019Y-93320674D01*
X147547008Y-93323785D01*
X147547006Y-93323790D01*
X147517579Y-93414359D01*
X147487771Y-93506100D01*
X147467391Y-93700000D01*
X146792609Y-93700000D01*
X146772229Y-93506100D01*
X146742421Y-93414359D01*
X146712994Y-93323790D01*
X146712992Y-93323785D01*
X146711981Y-93320674D01*
X146683431Y-93271223D01*
X146616135Y-93154662D01*
X146616132Y-93154658D01*
X146614497Y-93151826D01*
X146484037Y-93006936D01*
X146326305Y-92892337D01*
X146148192Y-92813036D01*
X146108781Y-92804659D01*
X145960685Y-92773180D01*
X145960681Y-92773180D01*
X145957484Y-92772500D01*
X145762516Y-92772500D01*
X145759319Y-92773180D01*
X145759315Y-92773180D01*
X145611219Y-92804659D01*
X145571808Y-92813036D01*
X145393696Y-92892337D01*
X145391051Y-92894259D01*
X145391047Y-92894261D01*
X145238612Y-93005011D01*
X145238610Y-93005013D01*
X145235963Y-93006936D01*
X145105503Y-93151826D01*
X145103868Y-93154658D01*
X145103865Y-93154662D01*
X145036569Y-93271223D01*
X145008019Y-93320674D01*
X145007008Y-93323785D01*
X145007006Y-93323790D01*
X144977579Y-93414359D01*
X144947771Y-93506100D01*
X144927391Y-93700000D01*
X144252609Y-93700000D01*
X144232229Y-93506100D01*
X144202421Y-93414359D01*
X144172994Y-93323790D01*
X144172992Y-93323785D01*
X144171981Y-93320674D01*
X144143431Y-93271223D01*
X144076135Y-93154662D01*
X144076132Y-93154658D01*
X144074497Y-93151826D01*
X143944037Y-93006936D01*
X143786305Y-92892337D01*
X143608192Y-92813036D01*
X143568781Y-92804659D01*
X143420685Y-92773180D01*
X143420681Y-92773180D01*
X143417484Y-92772500D01*
X143222516Y-92772500D01*
X143219319Y-92773180D01*
X143219315Y-92773180D01*
X143071219Y-92804659D01*
X143031808Y-92813036D01*
X142853696Y-92892337D01*
X142851051Y-92894259D01*
X142851047Y-92894261D01*
X142698612Y-93005011D01*
X142698610Y-93005013D01*
X142695963Y-93006936D01*
X142565503Y-93151826D01*
X142563868Y-93154658D01*
X142563865Y-93154662D01*
X142496569Y-93271223D01*
X142468019Y-93320674D01*
X142467008Y-93323785D01*
X142467006Y-93323790D01*
X142437579Y-93414359D01*
X142407771Y-93506100D01*
X142387391Y-93700000D01*
X137125716Y-93700000D01*
X137138577Y-93681632D01*
X137141298Y-93676921D01*
X137231723Y-93483004D01*
X137233583Y-93477895D01*
X137288960Y-93271223D01*
X137289904Y-93265869D01*
X137308552Y-93052720D01*
X137308552Y-93047280D01*
X137289904Y-92834131D01*
X137288960Y-92828777D01*
X137233583Y-92622105D01*
X137231723Y-92616996D01*
X137141298Y-92423079D01*
X137138577Y-92418368D01*
X137105459Y-92371068D01*
X137097433Y-92365955D01*
X137092065Y-92367145D01*
X136418000Y-93041210D01*
X136414359Y-93050000D01*
X135685641Y-93050000D01*
X135682000Y-93041210D01*
X135010463Y-92369673D01*
X135001673Y-92366032D01*
X134996595Y-92368136D01*
X134961423Y-92418368D01*
X134958702Y-92423079D01*
X134868277Y-92616996D01*
X134866417Y-92622105D01*
X134811040Y-92828777D01*
X134810096Y-92834131D01*
X134791448Y-93047280D01*
X134791448Y-93052720D01*
X130808552Y-93052720D01*
X130808552Y-93047280D01*
X130789904Y-92834131D01*
X130788960Y-92828777D01*
X130733583Y-92622105D01*
X130731723Y-92616996D01*
X130641298Y-92423079D01*
X130638577Y-92418368D01*
X130605459Y-92371068D01*
X130597433Y-92365955D01*
X130592065Y-92367145D01*
X129918000Y-93041210D01*
X129914359Y-93050000D01*
X129185641Y-93050000D01*
X129182000Y-93041210D01*
X128510463Y-92369673D01*
X128501673Y-92366032D01*
X128496595Y-92368136D01*
X128461423Y-92418368D01*
X128458702Y-92423079D01*
X128368277Y-92616996D01*
X128366417Y-92622105D01*
X128311040Y-92828777D01*
X128310096Y-92834131D01*
X128291448Y-93047280D01*
X128291448Y-93052720D01*
X125734364Y-93052720D01*
X125734364Y-92002567D01*
X128865955Y-92002567D01*
X128867145Y-92007935D01*
X129541210Y-92682000D01*
X129550000Y-92685641D01*
X129558790Y-92682000D01*
X130230327Y-92010463D01*
X130233598Y-92002567D01*
X135365955Y-92002567D01*
X135367145Y-92007935D01*
X136041210Y-92682000D01*
X136050000Y-92685641D01*
X136058790Y-92682000D01*
X136730327Y-92010463D01*
X136733598Y-92002567D01*
X165265955Y-92002567D01*
X165267145Y-92007935D01*
X165941210Y-92682000D01*
X165950000Y-92685641D01*
X165958790Y-92682000D01*
X166630327Y-92010463D01*
X166633598Y-92002567D01*
X171765955Y-92002567D01*
X171767145Y-92007935D01*
X172441210Y-92682000D01*
X172450000Y-92685641D01*
X172458790Y-92682000D01*
X173130327Y-92010463D01*
X173133968Y-92001673D01*
X173131864Y-91996595D01*
X173081632Y-91961423D01*
X173076921Y-91958702D01*
X172883004Y-91868277D01*
X172877895Y-91866417D01*
X172671223Y-91811040D01*
X172665869Y-91810096D01*
X172452720Y-91791448D01*
X172447280Y-91791448D01*
X172234131Y-91810096D01*
X172228777Y-91811040D01*
X172022105Y-91866417D01*
X172016996Y-91868277D01*
X171823079Y-91958702D01*
X171818368Y-91961423D01*
X171771068Y-91994541D01*
X171765955Y-92002567D01*
X166633598Y-92002567D01*
X166633968Y-92001673D01*
X166631864Y-91996595D01*
X166581632Y-91961423D01*
X166576921Y-91958702D01*
X166383004Y-91868277D01*
X166377895Y-91866417D01*
X166171223Y-91811040D01*
X166165869Y-91810096D01*
X165952720Y-91791448D01*
X165947280Y-91791448D01*
X165734131Y-91810096D01*
X165728777Y-91811040D01*
X165522105Y-91866417D01*
X165516996Y-91868277D01*
X165323079Y-91958702D01*
X165318368Y-91961423D01*
X165271068Y-91994541D01*
X165265955Y-92002567D01*
X136733598Y-92002567D01*
X136733968Y-92001673D01*
X136731864Y-91996595D01*
X136681632Y-91961423D01*
X136676921Y-91958702D01*
X136483004Y-91868277D01*
X136477895Y-91866417D01*
X136271223Y-91811040D01*
X136265869Y-91810096D01*
X136052720Y-91791448D01*
X136047280Y-91791448D01*
X135834131Y-91810096D01*
X135828777Y-91811040D01*
X135622105Y-91866417D01*
X135616996Y-91868277D01*
X135423079Y-91958702D01*
X135418368Y-91961423D01*
X135371068Y-91994541D01*
X135365955Y-92002567D01*
X130233598Y-92002567D01*
X130233968Y-92001673D01*
X130231864Y-91996595D01*
X130181632Y-91961423D01*
X130176921Y-91958702D01*
X129983004Y-91868277D01*
X129977895Y-91866417D01*
X129771223Y-91811040D01*
X129765869Y-91810096D01*
X129552720Y-91791448D01*
X129547280Y-91791448D01*
X129334131Y-91810096D01*
X129328777Y-91811040D01*
X129122105Y-91866417D01*
X129116996Y-91868277D01*
X128923079Y-91958702D01*
X128918368Y-91961423D01*
X128871068Y-91994541D01*
X128865955Y-92002567D01*
X125734364Y-92002567D01*
X125734364Y-88520359D01*
X128418058Y-88520359D01*
X128431611Y-88727135D01*
X128482619Y-88927980D01*
X128569373Y-89116165D01*
X128571023Y-89118500D01*
X128571025Y-89118503D01*
X128587279Y-89141501D01*
X128688970Y-89285390D01*
X128837402Y-89429986D01*
X129009699Y-89545111D01*
X129200091Y-89626910D01*
X129202877Y-89627540D01*
X129202882Y-89627542D01*
X129399411Y-89672012D01*
X129399414Y-89672012D01*
X129402201Y-89672643D01*
X129493531Y-89676231D01*
X129606402Y-89680666D01*
X129606406Y-89680666D01*
X129609262Y-89680778D01*
X129814337Y-89651044D01*
X130010560Y-89584435D01*
X130191359Y-89483183D01*
X130350678Y-89350678D01*
X130483183Y-89191359D01*
X130584435Y-89010560D01*
X130651044Y-88814337D01*
X130663284Y-88729915D01*
X130680515Y-88611078D01*
X130680515Y-88611073D01*
X130680778Y-88609262D01*
X130682330Y-88550000D01*
X130679607Y-88520359D01*
X134918058Y-88520359D01*
X134931611Y-88727135D01*
X134982619Y-88927980D01*
X135069373Y-89116165D01*
X135071023Y-89118500D01*
X135071025Y-89118503D01*
X135087279Y-89141501D01*
X135188970Y-89285390D01*
X135337402Y-89429986D01*
X135509699Y-89545111D01*
X135700091Y-89626910D01*
X135702877Y-89627540D01*
X135702882Y-89627542D01*
X135899411Y-89672012D01*
X135899414Y-89672012D01*
X135902201Y-89672643D01*
X135993531Y-89676231D01*
X136106402Y-89680666D01*
X136106406Y-89680666D01*
X136109262Y-89680778D01*
X136314337Y-89651044D01*
X136510560Y-89584435D01*
X136691359Y-89483183D01*
X136850678Y-89350678D01*
X136983183Y-89191359D01*
X137084435Y-89010560D01*
X137151044Y-88814337D01*
X137163284Y-88729915D01*
X137180515Y-88611078D01*
X137180515Y-88611073D01*
X137180778Y-88609262D01*
X137182330Y-88550000D01*
X137179607Y-88520359D01*
X137163631Y-88346504D01*
X137163369Y-88343649D01*
X137162590Y-88340886D01*
X137107899Y-88146966D01*
X137107897Y-88146962D01*
X137107121Y-88144209D01*
X137015470Y-87958359D01*
X136998643Y-87935825D01*
X136893202Y-87794622D01*
X136893201Y-87794620D01*
X136891485Y-87792323D01*
X136739319Y-87651662D01*
X136564067Y-87541087D01*
X136371599Y-87464300D01*
X136368793Y-87463742D01*
X136368790Y-87463741D01*
X136171167Y-87424431D01*
X136171165Y-87424431D01*
X136168361Y-87423873D01*
X136070846Y-87422597D01*
X135964020Y-87421198D01*
X135964015Y-87421198D01*
X135961158Y-87421161D01*
X135958337Y-87421646D01*
X135958333Y-87421646D01*
X135838768Y-87442191D01*
X135756931Y-87456253D01*
X135754243Y-87457245D01*
X135754238Y-87457246D01*
X135565207Y-87526984D01*
X135565204Y-87526985D01*
X135562519Y-87527976D01*
X135384433Y-87633926D01*
X135228637Y-87770555D01*
X135226861Y-87772808D01*
X135226860Y-87772809D01*
X135211477Y-87792323D01*
X135100348Y-87933289D01*
X135003863Y-88116676D01*
X135003016Y-88119403D01*
X135003015Y-88119406D01*
X134963555Y-88246488D01*
X134942414Y-88314575D01*
X134918058Y-88520359D01*
X130679607Y-88520359D01*
X130663631Y-88346504D01*
X130663369Y-88343649D01*
X130662590Y-88340886D01*
X130607899Y-88146966D01*
X130607897Y-88146962D01*
X130607121Y-88144209D01*
X130515470Y-87958359D01*
X130498643Y-87935825D01*
X130393202Y-87794622D01*
X130393201Y-87794620D01*
X130391485Y-87792323D01*
X130239319Y-87651662D01*
X130064067Y-87541087D01*
X129871599Y-87464300D01*
X129868793Y-87463742D01*
X129868790Y-87463741D01*
X129671167Y-87424431D01*
X129671165Y-87424431D01*
X129668361Y-87423873D01*
X129570846Y-87422597D01*
X129464020Y-87421198D01*
X129464015Y-87421198D01*
X129461158Y-87421161D01*
X129458337Y-87421646D01*
X129458333Y-87421646D01*
X129338768Y-87442191D01*
X129256931Y-87456253D01*
X129254243Y-87457245D01*
X129254238Y-87457246D01*
X129065207Y-87526984D01*
X129065204Y-87526985D01*
X129062519Y-87527976D01*
X128884433Y-87633926D01*
X128728637Y-87770555D01*
X128726861Y-87772808D01*
X128726860Y-87772809D01*
X128711477Y-87792323D01*
X128600348Y-87933289D01*
X128503863Y-88116676D01*
X128503016Y-88119403D01*
X128503015Y-88119406D01*
X128463555Y-88246488D01*
X128442414Y-88314575D01*
X128418058Y-88520359D01*
X125734364Y-88520359D01*
X125734364Y-86943134D01*
X144720782Y-86943134D01*
X144725027Y-86952771D01*
X145045385Y-87245812D01*
X145046925Y-87247132D01*
X145506027Y-87615599D01*
X145507646Y-87616814D01*
X145989574Y-87954892D01*
X145991264Y-87955997D01*
X146493998Y-88262266D01*
X146495775Y-88263271D01*
X147017225Y-88536459D01*
X147019024Y-88537329D01*
X147557050Y-88776311D01*
X147558903Y-88777063D01*
X148111197Y-88980815D01*
X148113138Y-88981461D01*
X148677432Y-89149148D01*
X148679372Y-89149657D01*
X149253321Y-89280582D01*
X149255306Y-89280968D01*
X149836507Y-89374581D01*
X149838512Y-89374838D01*
X150424524Y-89430748D01*
X150426542Y-89430876D01*
X151014961Y-89448853D01*
X151016974Y-89448850D01*
X151605326Y-89428818D01*
X151607344Y-89428684D01*
X152193152Y-89370729D01*
X152195170Y-89370464D01*
X152776057Y-89274819D01*
X152777992Y-89274436D01*
X153351512Y-89141501D01*
X153353443Y-89140987D01*
X153917149Y-88971331D01*
X153919078Y-88970682D01*
X154470649Y-88765006D01*
X154472538Y-88764231D01*
X155009684Y-88523392D01*
X155011513Y-88522499D01*
X155015563Y-88520359D01*
X164818058Y-88520359D01*
X164831611Y-88727135D01*
X164882619Y-88927980D01*
X164969373Y-89116165D01*
X164971023Y-89118500D01*
X164971025Y-89118503D01*
X164987279Y-89141501D01*
X165088970Y-89285390D01*
X165237402Y-89429986D01*
X165409699Y-89545111D01*
X165600091Y-89626910D01*
X165602877Y-89627540D01*
X165602882Y-89627542D01*
X165799411Y-89672012D01*
X165799414Y-89672012D01*
X165802201Y-89672643D01*
X165893531Y-89676231D01*
X166006402Y-89680666D01*
X166006406Y-89680666D01*
X166009262Y-89680778D01*
X166214337Y-89651044D01*
X166410560Y-89584435D01*
X166591359Y-89483183D01*
X166750678Y-89350678D01*
X166883183Y-89191359D01*
X166984435Y-89010560D01*
X167051044Y-88814337D01*
X167063284Y-88729915D01*
X167080515Y-88611078D01*
X167080515Y-88611073D01*
X167080778Y-88609262D01*
X167082330Y-88550000D01*
X167079607Y-88520359D01*
X171318058Y-88520359D01*
X171331611Y-88727135D01*
X171382619Y-88927980D01*
X171469373Y-89116165D01*
X171471023Y-89118500D01*
X171471025Y-89118503D01*
X171487279Y-89141501D01*
X171588970Y-89285390D01*
X171737402Y-89429986D01*
X171909699Y-89545111D01*
X172100091Y-89626910D01*
X172102877Y-89627540D01*
X172102882Y-89627542D01*
X172299411Y-89672012D01*
X172299414Y-89672012D01*
X172302201Y-89672643D01*
X172393531Y-89676231D01*
X172506402Y-89680666D01*
X172506406Y-89680666D01*
X172509262Y-89680778D01*
X172714337Y-89651044D01*
X172910560Y-89584435D01*
X173091359Y-89483183D01*
X173250678Y-89350678D01*
X173383183Y-89191359D01*
X173484435Y-89010560D01*
X173551044Y-88814337D01*
X173563284Y-88729915D01*
X173580515Y-88611078D01*
X173580515Y-88611073D01*
X173580778Y-88609262D01*
X173582330Y-88550000D01*
X173579607Y-88520359D01*
X173563631Y-88346504D01*
X173563369Y-88343649D01*
X173562590Y-88340886D01*
X173507899Y-88146966D01*
X173507897Y-88146962D01*
X173507121Y-88144209D01*
X173415470Y-87958359D01*
X173398643Y-87935825D01*
X173293202Y-87794622D01*
X173293201Y-87794620D01*
X173291485Y-87792323D01*
X173139319Y-87651662D01*
X172964067Y-87541087D01*
X172771599Y-87464300D01*
X172768793Y-87463742D01*
X172768790Y-87463741D01*
X172571167Y-87424431D01*
X172571165Y-87424431D01*
X172568361Y-87423873D01*
X172470846Y-87422597D01*
X172364020Y-87421198D01*
X172364015Y-87421198D01*
X172361158Y-87421161D01*
X172358337Y-87421646D01*
X172358333Y-87421646D01*
X172238768Y-87442191D01*
X172156931Y-87456253D01*
X172154243Y-87457245D01*
X172154238Y-87457246D01*
X171965207Y-87526984D01*
X171965204Y-87526985D01*
X171962519Y-87527976D01*
X171784433Y-87633926D01*
X171628637Y-87770555D01*
X171626861Y-87772808D01*
X171626860Y-87772809D01*
X171611477Y-87792323D01*
X171500348Y-87933289D01*
X171403863Y-88116676D01*
X171403016Y-88119403D01*
X171403015Y-88119406D01*
X171363555Y-88246488D01*
X171342414Y-88314575D01*
X171318058Y-88520359D01*
X167079607Y-88520359D01*
X167063631Y-88346504D01*
X167063369Y-88343649D01*
X167062590Y-88340886D01*
X167007899Y-88146966D01*
X167007897Y-88146962D01*
X167007121Y-88144209D01*
X166915470Y-87958359D01*
X166898643Y-87935825D01*
X166793202Y-87794622D01*
X166793201Y-87794620D01*
X166791485Y-87792323D01*
X166639319Y-87651662D01*
X166464067Y-87541087D01*
X166271599Y-87464300D01*
X166268793Y-87463742D01*
X166268790Y-87463741D01*
X166071167Y-87424431D01*
X166071165Y-87424431D01*
X166068361Y-87423873D01*
X165970846Y-87422597D01*
X165864020Y-87421198D01*
X165864015Y-87421198D01*
X165861158Y-87421161D01*
X165858337Y-87421646D01*
X165858333Y-87421646D01*
X165738768Y-87442191D01*
X165656931Y-87456253D01*
X165654243Y-87457245D01*
X165654238Y-87457246D01*
X165465207Y-87526984D01*
X165465204Y-87526985D01*
X165462519Y-87527976D01*
X165284433Y-87633926D01*
X165128637Y-87770555D01*
X165126861Y-87772808D01*
X165126860Y-87772809D01*
X165111477Y-87792323D01*
X165000348Y-87933289D01*
X164903863Y-88116676D01*
X164903016Y-88119403D01*
X164903015Y-88119406D01*
X164863555Y-88246488D01*
X164842414Y-88314575D01*
X164818058Y-88520359D01*
X155015563Y-88520359D01*
X155532002Y-88247496D01*
X155533770Y-88246488D01*
X156035436Y-87938464D01*
X156037108Y-87937361D01*
X156517869Y-87597593D01*
X156519470Y-87596382D01*
X156977293Y-87226306D01*
X156978821Y-87224987D01*
X157275200Y-86951975D01*
X157278881Y-86944027D01*
X157275080Y-86934290D01*
X151008790Y-80668000D01*
X151000000Y-80664359D01*
X150991210Y-80668000D01*
X144724109Y-86935101D01*
X144720782Y-86943134D01*
X125734364Y-86943134D01*
X125734364Y-81824000D01*
X139310647Y-81824000D01*
X139330022Y-82045463D01*
X139387560Y-82260196D01*
X139388712Y-82262667D01*
X139388713Y-82262669D01*
X139390064Y-82265565D01*
X139481512Y-82461676D01*
X139609023Y-82643781D01*
X139766219Y-82800977D01*
X139948323Y-82928488D01*
X140149804Y-83022440D01*
X140152437Y-83023145D01*
X140152441Y-83023147D01*
X140361901Y-83079272D01*
X140361904Y-83079273D01*
X140364537Y-83079978D01*
X140367253Y-83080216D01*
X140367255Y-83080216D01*
X140583280Y-83099115D01*
X140586000Y-83099353D01*
X140588720Y-83099115D01*
X140804745Y-83080216D01*
X140804747Y-83080216D01*
X140807463Y-83079978D01*
X140810096Y-83079273D01*
X140810099Y-83079272D01*
X141019559Y-83023147D01*
X141019563Y-83023145D01*
X141022196Y-83022440D01*
X141223677Y-82928488D01*
X141405781Y-82800977D01*
X141562977Y-82643781D01*
X141690488Y-82461676D01*
X141781937Y-82265565D01*
X141783287Y-82262669D01*
X141783288Y-82262667D01*
X141784440Y-82260196D01*
X141841978Y-82045463D01*
X141860168Y-81837540D01*
X141882256Y-81795110D01*
X141927877Y-81780726D01*
X141970308Y-81802814D01*
X141983873Y-81831545D01*
X142064339Y-82263595D01*
X142064772Y-82265565D01*
X142209681Y-82836143D01*
X142210241Y-82838084D01*
X142391671Y-83398132D01*
X142392347Y-83400009D01*
X142609532Y-83947161D01*
X142610349Y-83949039D01*
X142862390Y-84481035D01*
X142863311Y-84482825D01*
X143149156Y-84997444D01*
X143150200Y-84999190D01*
X143468665Y-85494300D01*
X143469808Y-85495956D01*
X143819556Y-85969476D01*
X143820822Y-85971079D01*
X144200381Y-86421023D01*
X144201753Y-86422546D01*
X144348208Y-86575001D01*
X144356588Y-86578671D01*
X144365845Y-86574945D01*
X150632000Y-80308790D01*
X150635641Y-80300000D01*
X151364359Y-80300000D01*
X151368000Y-80308790D01*
X157634254Y-86575044D01*
X157642644Y-86578519D01*
X157651890Y-86574561D01*
X157819591Y-86398764D01*
X157820931Y-86397266D01*
X158198941Y-85945970D01*
X158200180Y-85944390D01*
X158548295Y-85469621D01*
X158549411Y-85467992D01*
X158866162Y-84971750D01*
X158867187Y-84970023D01*
X159151242Y-84454395D01*
X159152155Y-84452605D01*
X159402347Y-83919710D01*
X159403138Y-83917873D01*
X159618418Y-83369954D01*
X159619096Y-83368051D01*
X159798566Y-82807384D01*
X159799119Y-82805441D01*
X159942028Y-82234386D01*
X159942462Y-82232382D01*
X160015938Y-81830064D01*
X160041886Y-81789878D01*
X160088650Y-81779810D01*
X160128836Y-81805758D01*
X160139683Y-81835846D01*
X160157784Y-82042745D01*
X160158022Y-82045463D01*
X160215560Y-82260196D01*
X160216712Y-82262667D01*
X160216713Y-82262669D01*
X160218064Y-82265565D01*
X160309512Y-82461676D01*
X160437023Y-82643781D01*
X160594219Y-82800977D01*
X160776323Y-82928488D01*
X160977804Y-83022440D01*
X160980437Y-83023145D01*
X160980441Y-83023147D01*
X161189901Y-83079272D01*
X161189904Y-83079273D01*
X161192537Y-83079978D01*
X161195253Y-83080216D01*
X161195255Y-83080216D01*
X161411280Y-83099115D01*
X161414000Y-83099353D01*
X161416720Y-83099115D01*
X161632745Y-83080216D01*
X161632747Y-83080216D01*
X161635463Y-83079978D01*
X161638096Y-83079273D01*
X161638099Y-83079272D01*
X161847559Y-83023147D01*
X161847563Y-83023145D01*
X161850196Y-83022440D01*
X162051677Y-82928488D01*
X162233781Y-82800977D01*
X162390977Y-82643781D01*
X162518488Y-82461676D01*
X162609937Y-82265565D01*
X162611287Y-82262669D01*
X162611288Y-82262667D01*
X162612440Y-82260196D01*
X162669978Y-82045463D01*
X162689353Y-81824000D01*
X162669978Y-81602537D01*
X162669272Y-81599901D01*
X162613147Y-81390441D01*
X162613145Y-81390437D01*
X162612440Y-81387804D01*
X162518488Y-81186324D01*
X162390977Y-81004219D01*
X162233781Y-80847023D01*
X162051677Y-80719512D01*
X161850196Y-80625560D01*
X161847563Y-80624855D01*
X161847559Y-80624853D01*
X161638099Y-80568728D01*
X161638096Y-80568727D01*
X161635463Y-80568022D01*
X161632747Y-80567784D01*
X161632745Y-80567784D01*
X161416720Y-80548885D01*
X161414000Y-80548647D01*
X161411280Y-80548885D01*
X161195255Y-80567784D01*
X161195253Y-80567784D01*
X161192537Y-80568022D01*
X161189904Y-80568727D01*
X161189901Y-80568728D01*
X160980441Y-80624853D01*
X160980437Y-80624855D01*
X160977804Y-80625560D01*
X160975333Y-80626712D01*
X160975331Y-80626713D01*
X160778798Y-80718358D01*
X160778795Y-80718360D01*
X160776324Y-80719512D01*
X160774092Y-80721075D01*
X160774087Y-80721078D01*
X160716976Y-80761068D01*
X160594219Y-80847023D01*
X160437023Y-81004219D01*
X160309512Y-81186324D01*
X160215560Y-81387804D01*
X160214855Y-81390437D01*
X160214853Y-81390441D01*
X160195840Y-81461399D01*
X160166720Y-81499350D01*
X160119294Y-81505593D01*
X160081343Y-81476473D01*
X160073391Y-81437985D01*
X160116695Y-81066561D01*
X160116864Y-81064557D01*
X160147177Y-80476306D01*
X160147218Y-80474965D01*
X160148892Y-80300669D01*
X160148876Y-80299324D01*
X160129861Y-79710614D01*
X160129731Y-79708597D01*
X160078347Y-79179794D01*
X160092293Y-79134036D01*
X160134509Y-79111542D01*
X160180267Y-79125488D01*
X160200923Y-79157572D01*
X160215560Y-79212196D01*
X160309512Y-79413676D01*
X160437023Y-79595781D01*
X160594219Y-79752977D01*
X160776323Y-79880488D01*
X160977804Y-79974440D01*
X160980437Y-79975145D01*
X160980441Y-79975147D01*
X161189901Y-80031272D01*
X161189904Y-80031273D01*
X161192537Y-80031978D01*
X161195253Y-80032216D01*
X161195255Y-80032216D01*
X161411280Y-80051115D01*
X161414000Y-80051353D01*
X161416720Y-80051115D01*
X161632745Y-80032216D01*
X161632747Y-80032216D01*
X161635463Y-80031978D01*
X161638096Y-80031273D01*
X161638099Y-80031272D01*
X161847559Y-79975147D01*
X161847563Y-79975145D01*
X161850196Y-79974440D01*
X162051677Y-79880488D01*
X162233781Y-79752977D01*
X162390977Y-79595781D01*
X162518488Y-79413676D01*
X162612440Y-79212196D01*
X162621123Y-79179794D01*
X162669272Y-79000099D01*
X162669273Y-79000096D01*
X162669978Y-78997463D01*
X162689353Y-78776000D01*
X162669978Y-78554537D01*
X162612440Y-78339804D01*
X162611287Y-78337331D01*
X162519642Y-78140798D01*
X162519640Y-78140795D01*
X162518488Y-78138324D01*
X162390977Y-77956219D01*
X162233781Y-77799023D01*
X162051677Y-77671512D01*
X161888810Y-77595566D01*
X161852669Y-77578713D01*
X161852667Y-77578712D01*
X161850196Y-77577560D01*
X161847563Y-77576855D01*
X161847559Y-77576853D01*
X161638099Y-77520728D01*
X161638096Y-77520727D01*
X161635463Y-77520022D01*
X161632747Y-77519784D01*
X161632745Y-77519784D01*
X161416720Y-77500885D01*
X161414000Y-77500647D01*
X161411280Y-77500885D01*
X161195255Y-77519784D01*
X161195253Y-77519784D01*
X161192537Y-77520022D01*
X161189904Y-77520727D01*
X161189901Y-77520728D01*
X160980441Y-77576853D01*
X160980437Y-77576855D01*
X160977804Y-77577560D01*
X160975333Y-77578712D01*
X160975331Y-77578713D01*
X160778798Y-77670358D01*
X160778795Y-77670360D01*
X160776324Y-77671512D01*
X160774092Y-77673075D01*
X160774087Y-77673078D01*
X160716976Y-77713068D01*
X160594219Y-77799023D01*
X160437023Y-77956219D01*
X160309512Y-78138324D01*
X160308360Y-78140795D01*
X160308358Y-78140798D01*
X160216713Y-78337331D01*
X160215560Y-78339804D01*
X160158022Y-78554537D01*
X160157784Y-78557253D01*
X160157784Y-78557255D01*
X160139505Y-78766197D01*
X160117417Y-78808628D01*
X160071796Y-78823012D01*
X160029365Y-78800924D01*
X160015556Y-78770796D01*
X159977912Y-78539658D01*
X159977514Y-78537626D01*
X159845597Y-77963943D01*
X159845082Y-77961993D01*
X159676404Y-77397975D01*
X159675764Y-77396062D01*
X159471049Y-76844123D01*
X159470281Y-76842242D01*
X159230372Y-76304663D01*
X159229498Y-76302863D01*
X158955387Y-75781863D01*
X158954393Y-75780114D01*
X158647247Y-75277914D01*
X158646130Y-75276213D01*
X158307224Y-74794893D01*
X158305991Y-74793256D01*
X157936729Y-74334806D01*
X157935418Y-74333281D01*
X157652118Y-74024655D01*
X157644205Y-74020974D01*
X157634430Y-74024780D01*
X151368000Y-80291210D01*
X151364359Y-80300000D01*
X150635641Y-80300000D01*
X150632000Y-80291210D01*
X144363464Y-74022674D01*
X144354689Y-74019039D01*
X144345881Y-74022693D01*
X144320539Y-74048078D01*
X144319151Y-74049561D01*
X143931003Y-74492158D01*
X143929724Y-74493715D01*
X143570944Y-74960443D01*
X143569772Y-74962074D01*
X143241854Y-75450988D01*
X143240793Y-75452685D01*
X142945093Y-75961772D01*
X142944168Y-75963489D01*
X142681938Y-76490593D01*
X142681104Y-76492415D01*
X142453447Y-77035314D01*
X142452730Y-77037192D01*
X142260583Y-77593651D01*
X142259990Y-77595566D01*
X142104153Y-78163261D01*
X142103684Y-78165219D01*
X141984811Y-78741765D01*
X141984463Y-78743783D01*
X141983204Y-78752796D01*
X141958961Y-78794033D01*
X141912660Y-78806050D01*
X141871423Y-78781807D01*
X141859043Y-78749598D01*
X141842216Y-78557255D01*
X141842216Y-78557253D01*
X141841978Y-78554537D01*
X141784440Y-78339804D01*
X141783287Y-78337331D01*
X141691642Y-78140798D01*
X141691640Y-78140795D01*
X141690488Y-78138324D01*
X141562977Y-77956219D01*
X141405781Y-77799023D01*
X141223677Y-77671512D01*
X141060810Y-77595566D01*
X141024669Y-77578713D01*
X141024667Y-77578712D01*
X141022196Y-77577560D01*
X141019563Y-77576855D01*
X141019559Y-77576853D01*
X140810099Y-77520728D01*
X140810096Y-77520727D01*
X140807463Y-77520022D01*
X140804747Y-77519784D01*
X140804745Y-77519784D01*
X140588720Y-77500885D01*
X140586000Y-77500647D01*
X140583280Y-77500885D01*
X140367255Y-77519784D01*
X140367253Y-77519784D01*
X140364537Y-77520022D01*
X140361904Y-77520727D01*
X140361901Y-77520728D01*
X140152441Y-77576853D01*
X140152437Y-77576855D01*
X140149804Y-77577560D01*
X140147333Y-77578712D01*
X140147331Y-77578713D01*
X139950798Y-77670358D01*
X139950795Y-77670360D01*
X139948324Y-77671512D01*
X139946092Y-77673075D01*
X139946087Y-77673078D01*
X139888976Y-77713068D01*
X139766219Y-77799023D01*
X139609023Y-77956219D01*
X139481512Y-78138324D01*
X139480360Y-78140795D01*
X139480358Y-78140798D01*
X139388713Y-78337331D01*
X139387560Y-78339804D01*
X139330022Y-78554537D01*
X139310647Y-78776000D01*
X139330022Y-78997463D01*
X139330727Y-79000096D01*
X139330728Y-79000099D01*
X139378878Y-79179794D01*
X139387560Y-79212196D01*
X139481512Y-79413676D01*
X139609023Y-79595781D01*
X139766219Y-79752977D01*
X139948323Y-79880488D01*
X140149804Y-79974440D01*
X140152437Y-79975145D01*
X140152441Y-79975147D01*
X140361901Y-80031272D01*
X140361904Y-80031273D01*
X140364537Y-80031978D01*
X140367253Y-80032216D01*
X140367255Y-80032216D01*
X140583280Y-80051115D01*
X140586000Y-80051353D01*
X140588720Y-80051115D01*
X140804745Y-80032216D01*
X140804747Y-80032216D01*
X140807463Y-80031978D01*
X140810096Y-80031273D01*
X140810099Y-80031272D01*
X141019559Y-79975147D01*
X141019563Y-79975145D01*
X141022196Y-79974440D01*
X141223677Y-79880488D01*
X141405781Y-79752977D01*
X141562977Y-79595781D01*
X141690488Y-79413676D01*
X141784440Y-79212196D01*
X141802972Y-79143035D01*
X141832091Y-79105086D01*
X141879517Y-79098842D01*
X141917467Y-79127962D01*
X141925240Y-79167856D01*
X141903046Y-79326785D01*
X141902828Y-79328820D01*
X141859202Y-79915880D01*
X141859117Y-79917891D01*
X141853467Y-80506558D01*
X141853512Y-80508560D01*
X141885861Y-81096374D01*
X141886037Y-81098383D01*
X141926987Y-81439274D01*
X141914083Y-81485336D01*
X141872387Y-81508782D01*
X141826325Y-81495878D01*
X141804563Y-81462904D01*
X141785147Y-81390441D01*
X141785145Y-81390437D01*
X141784440Y-81387804D01*
X141690488Y-81186324D01*
X141562977Y-81004219D01*
X141405781Y-80847023D01*
X141223677Y-80719512D01*
X141022196Y-80625560D01*
X141019563Y-80624855D01*
X141019559Y-80624853D01*
X140810099Y-80568728D01*
X140810096Y-80568727D01*
X140807463Y-80568022D01*
X140804747Y-80567784D01*
X140804745Y-80567784D01*
X140588720Y-80548885D01*
X140586000Y-80548647D01*
X140583280Y-80548885D01*
X140367255Y-80567784D01*
X140367253Y-80567784D01*
X140364537Y-80568022D01*
X140361904Y-80568727D01*
X140361901Y-80568728D01*
X140152441Y-80624853D01*
X140152437Y-80624855D01*
X140149804Y-80625560D01*
X140147333Y-80626712D01*
X140147331Y-80626713D01*
X139950798Y-80718358D01*
X139950795Y-80718360D01*
X139948324Y-80719512D01*
X139946092Y-80721075D01*
X139946087Y-80721078D01*
X139888976Y-80761068D01*
X139766219Y-80847023D01*
X139609023Y-81004219D01*
X139481512Y-81186324D01*
X139387560Y-81387804D01*
X139386855Y-81390437D01*
X139386853Y-81390441D01*
X139330728Y-81599901D01*
X139330022Y-81602537D01*
X139310647Y-81824000D01*
X125734364Y-81824000D01*
X125734364Y-76755284D01*
X125736494Y-76739108D01*
X126056066Y-75546456D01*
X126072242Y-75518438D01*
X126945320Y-74645356D01*
X126958264Y-74635423D01*
X128657508Y-73654371D01*
X144718714Y-73654371D01*
X144722352Y-73663142D01*
X150991210Y-79932000D01*
X151000000Y-79935641D01*
X151008790Y-79932000D01*
X157275101Y-73665689D01*
X157278588Y-73657270D01*
X157274653Y-73648056D01*
X157110655Y-73491062D01*
X157109171Y-73489730D01*
X156658526Y-73110923D01*
X156656940Y-73109675D01*
X156182797Y-72760745D01*
X156181154Y-72759616D01*
X155685477Y-72442008D01*
X155683744Y-72440975D01*
X155168618Y-72156023D01*
X155166819Y-72155103D01*
X154634392Y-71903994D01*
X154632515Y-71903182D01*
X154084989Y-71686953D01*
X154083085Y-71686271D01*
X153522749Y-71505828D01*
X153520799Y-71505268D01*
X152949978Y-71361358D01*
X152947983Y-71360924D01*
X152369086Y-71254154D01*
X152367081Y-71253850D01*
X151782485Y-71184659D01*
X151780440Y-71184484D01*
X151192615Y-71153163D01*
X151190592Y-71153120D01*
X150601954Y-71159798D01*
X150599912Y-71159888D01*
X150012931Y-71204538D01*
X150010922Y-71204756D01*
X149428041Y-71287193D01*
X149426045Y-71287542D01*
X148849708Y-71407420D01*
X148847723Y-71407900D01*
X148280336Y-71564718D01*
X148278381Y-71565327D01*
X147722296Y-71758432D01*
X147720384Y-71759166D01*
X147177913Y-71987756D01*
X147176070Y-71988604D01*
X146649466Y-72251734D01*
X146647697Y-72252690D01*
X146139155Y-72549263D01*
X146137447Y-72550335D01*
X145649134Y-72879086D01*
X145647474Y-72880283D01*
X145181376Y-73239875D01*
X145179835Y-73241145D01*
X144737893Y-73630084D01*
X144736445Y-73631444D01*
X144722354Y-73645560D01*
X144718714Y-73654371D01*
X128657508Y-73654371D01*
X141469231Y-66257570D01*
X148495500Y-66257570D01*
X148534997Y-66570224D01*
X148613369Y-66875463D01*
X148729380Y-67168473D01*
X148881200Y-67444632D01*
X148882354Y-67446220D01*
X149065287Y-67698007D01*
X149065291Y-67698012D01*
X149066434Y-67699585D01*
X149282162Y-67929312D01*
X149524981Y-68130189D01*
X149791062Y-68299050D01*
X149792837Y-68299885D01*
X149792842Y-68299888D01*
X150015048Y-68404449D01*
X150076209Y-68433229D01*
X150078065Y-68433832D01*
X150078070Y-68433834D01*
X150319406Y-68512249D01*
X150375925Y-68530613D01*
X150377854Y-68530981D01*
X150377858Y-68530982D01*
X150657326Y-68584293D01*
X150685482Y-68589664D01*
X150921291Y-68604500D01*
X151078709Y-68604500D01*
X151314518Y-68589664D01*
X151342674Y-68584293D01*
X151622142Y-68530982D01*
X151622146Y-68530981D01*
X151624075Y-68530613D01*
X151680594Y-68512249D01*
X151921930Y-68433834D01*
X151921935Y-68433832D01*
X151923791Y-68433229D01*
X151984952Y-68404449D01*
X152207158Y-68299888D01*
X152207163Y-68299885D01*
X152208938Y-68299050D01*
X152475019Y-68130189D01*
X152717838Y-67929312D01*
X152933566Y-67699585D01*
X152934709Y-67698012D01*
X152934713Y-67698007D01*
X153117646Y-67446220D01*
X153118800Y-67444632D01*
X153270620Y-67168473D01*
X153386631Y-66875463D01*
X153465003Y-66570224D01*
X153504500Y-66257570D01*
X153504500Y-65942430D01*
X153465003Y-65629776D01*
X153386631Y-65324537D01*
X153270620Y-65031527D01*
X153118800Y-64755368D01*
X153057757Y-64671349D01*
X152934713Y-64501993D01*
X152934709Y-64501988D01*
X152933566Y-64500415D01*
X152717838Y-64270688D01*
X152475019Y-64069811D01*
X152208938Y-63900950D01*
X152207163Y-63900115D01*
X152207158Y-63900112D01*
X151925561Y-63767604D01*
X151923791Y-63766771D01*
X151921935Y-63766168D01*
X151921930Y-63766166D01*
X151625946Y-63669995D01*
X151625947Y-63669995D01*
X151624075Y-63669387D01*
X151622146Y-63669019D01*
X151622142Y-63669018D01*
X151316447Y-63610704D01*
X151314518Y-63610336D01*
X151078709Y-63595500D01*
X150921291Y-63595500D01*
X150685482Y-63610336D01*
X150683553Y-63610704D01*
X150377858Y-63669018D01*
X150377854Y-63669019D01*
X150375925Y-63669387D01*
X150374053Y-63669995D01*
X150374054Y-63669995D01*
X150078070Y-63766166D01*
X150078065Y-63766168D01*
X150076209Y-63766771D01*
X150074439Y-63767604D01*
X149792842Y-63900112D01*
X149792837Y-63900115D01*
X149791062Y-63900950D01*
X149524981Y-64069811D01*
X149282162Y-64270688D01*
X149066434Y-64500415D01*
X149065291Y-64501988D01*
X149065287Y-64501993D01*
X148942243Y-64671349D01*
X148881200Y-64755368D01*
X148729380Y-65031527D01*
X148613369Y-65324537D01*
X148534997Y-65629776D01*
X148495500Y-65942430D01*
X148495500Y-66257570D01*
X141469231Y-66257570D01*
X149776102Y-61461629D01*
X149791176Y-61455386D01*
X150631872Y-61230120D01*
X150983824Y-61135814D01*
X151016174Y-61135814D01*
X151401916Y-61239174D01*
G37*
G04 #@! TD.AperFunction*
M02*
