G04 #@! TF.GenerationSoftware,KiCad,Pcbnew,(6.0.0)*
G04 #@! TF.CreationDate,2022-03-25T14:06:01-05:00*
G04 #@! TF.ProjectId,gencyber-badge-22_2,67656e63-7962-4657-922d-62616467652d,rev?*
G04 #@! TF.SameCoordinates,Original*
G04 #@! TF.FileFunction,Copper,L1,Top*
G04 #@! TF.FilePolarity,Positive*
%FSLAX46Y46*%
G04 Gerber Fmt 4.6, Leading zero omitted, Abs format (unit mm)*
G04 Created by KiCad (PCBNEW (6.0.0)) date 2022-03-25 14:06:01*
%MOMM*%
%LPD*%
G01*
G04 APERTURE LIST*
G04 Aperture macros list*
%AMRoundRect*
0 Rectangle with rounded corners*
0 $1 Rounding radius*
0 $2 $3 $4 $5 $6 $7 $8 $9 X,Y pos of 4 corners*
0 Add a 4 corners polygon primitive as box body*
4,1,4,$2,$3,$4,$5,$6,$7,$8,$9,$2,$3,0*
0 Add four circle primitives for the rounded corners*
1,1,$1+$1,$2,$3*
1,1,$1+$1,$4,$5*
1,1,$1+$1,$6,$7*
1,1,$1+$1,$8,$9*
0 Add four rect primitives between the rounded corners*
20,1,$1+$1,$2,$3,$4,$5,0*
20,1,$1+$1,$4,$5,$6,$7,0*
20,1,$1+$1,$6,$7,$8,$9,0*
20,1,$1+$1,$8,$9,$2,$3,0*%
G04 Aperture macros list end*
G04 #@! TA.AperFunction,ComponentPad*
%ADD10C,2.000000*%
G04 #@! TD*
G04 #@! TA.AperFunction,ComponentPad*
%ADD11RoundRect,0.250200X-0.649800X-0.649800X0.649800X-0.649800X0.649800X0.649800X-0.649800X0.649800X0*%
G04 #@! TD*
G04 #@! TA.AperFunction,ComponentPad*
%ADD12C,1.800000*%
G04 #@! TD*
G04 #@! TA.AperFunction,ComponentPad*
%ADD13R,1.800000X1.800000*%
G04 #@! TD*
G04 #@! TA.AperFunction,ComponentPad*
%ADD14R,1.600000X1.600000*%
G04 #@! TD*
G04 #@! TA.AperFunction,ComponentPad*
%ADD15O,1.600000X1.600000*%
G04 #@! TD*
G04 #@! TA.AperFunction,ComponentPad*
%ADD16RoundRect,0.450000X-0.450000X-0.450000X0.450000X-0.450000X0.450000X0.450000X-0.450000X0.450000X0*%
G04 #@! TD*
G04 #@! TA.AperFunction,ComponentPad*
%ADD17C,1.400000*%
G04 #@! TD*
G04 #@! TA.AperFunction,ComponentPad*
%ADD18O,1.400000X1.400000*%
G04 #@! TD*
G04 #@! TA.AperFunction,ComponentPad*
%ADD19C,2.286000*%
G04 #@! TD*
G04 #@! TA.AperFunction,Conductor*
%ADD20C,0.254000*%
G04 #@! TD*
G04 APERTURE END LIST*
D10*
X136050000Y-88550000D03*
X129550000Y-88550000D03*
X136050000Y-93050000D03*
X129550000Y-93050000D03*
D11*
X167760000Y-101875000D03*
D12*
X170300000Y-101875000D03*
X172840000Y-101875000D03*
D13*
X129910000Y-102300000D03*
D12*
X132450000Y-102300000D03*
D14*
X158560000Y-93700000D03*
D15*
X156020000Y-93700000D03*
X153480000Y-93700000D03*
X150940000Y-93700000D03*
X148400000Y-93700000D03*
X145860000Y-93700000D03*
X143320000Y-93700000D03*
X143320000Y-101320000D03*
X145860000Y-101320000D03*
X148400000Y-101320000D03*
X150940000Y-101320000D03*
X153480000Y-101320000D03*
X156020000Y-101320000D03*
X158560000Y-101320000D03*
D16*
X148390000Y-112440000D03*
D12*
X150168000Y-113964000D03*
X151692000Y-112440000D03*
X153216000Y-113964000D03*
D10*
X172450000Y-88550000D03*
X165950000Y-88550000D03*
X172450000Y-93050000D03*
X165950000Y-93050000D03*
D17*
X148360000Y-106380000D03*
D18*
X153440000Y-106380000D03*
D19*
X161414000Y-78776000D03*
X161414000Y-81824000D03*
X140586000Y-81824000D03*
X140586000Y-78776000D03*
D20*
X165950000Y-88550000D02*
X159746489Y-94753511D01*
X159746489Y-94753511D02*
X157073511Y-94753511D01*
X157073511Y-94753511D02*
X156020000Y-93700000D01*
X147406489Y-111456489D02*
X148390000Y-112440000D01*
X147406489Y-102313511D02*
X147406489Y-111456489D01*
X148400000Y-101320000D02*
X147406489Y-102313511D01*
X150168000Y-108188000D02*
X150168000Y-113964000D01*
X148360000Y-106380000D02*
X150168000Y-108188000D01*
X154393511Y-112786489D02*
X153216000Y-113964000D01*
X154393511Y-102233511D02*
X154393511Y-112786489D01*
X153480000Y-101320000D02*
X154393511Y-102233511D01*
X150940000Y-103880000D02*
X153440000Y-106380000D01*
X150940000Y-101320000D02*
X150940000Y-103880000D01*
X138510000Y-93700000D02*
X143320000Y-93700000D01*
X129910000Y-102300000D02*
X138510000Y-93700000D01*
X157073511Y-102373511D02*
X156020000Y-101320000D01*
X167261489Y-102373511D02*
X157073511Y-102373511D01*
X167760000Y-101875000D02*
X167261489Y-102373511D01*
X173800000Y-100915000D02*
X172840000Y-101875000D01*
X173800000Y-88127267D02*
X173800000Y-100915000D01*
X161414000Y-78776000D02*
X164448733Y-78776000D01*
X164448733Y-78776000D02*
X173800000Y-88127267D01*
X148330000Y-88550000D02*
X153480000Y-93700000D01*
X136050000Y-88550000D02*
X148330000Y-88550000D01*
X129550000Y-93050000D02*
X136050000Y-93050000D01*
X136050000Y-88550000D02*
X129550000Y-88550000D01*
X165950000Y-88550000D02*
X172450000Y-88550000D01*
X172450000Y-93050000D02*
X165950000Y-93050000D01*
X146684000Y-81824000D02*
X158560000Y-93700000D01*
X140586000Y-81824000D02*
X146684000Y-81824000D01*
X161414000Y-81824000D02*
X161414000Y-90846000D01*
X161414000Y-90846000D02*
X158560000Y-93700000D01*
X161414000Y-78776000D02*
X161414000Y-81824000D01*
X140586000Y-78776000D02*
X140586000Y-81824000D01*
M02*
