M48
; DRILL file {KiCad (6.0.0)} date Fri Mar 25 14:07:06 2022
; FORMAT={-:-/ absolute / metric / decimal}
; #@! TF.CreationDate,2022-03-25T14:07:06-05:00
; #@! TF.GenerationSoftware,Kicad,Pcbnew,(6.0.0)
; #@! TF.FileFunction,Plated,1,2,PTH
FMAT,2
METRIC
; #@! TA.AperFunction,Plated,PTH,ComponentDrill
T1C0.700
; #@! TA.AperFunction,Plated,PTH,ComponentDrill
T2C0.800
; #@! TA.AperFunction,Plated,PTH,ComponentDrill
T3C0.900
; #@! TA.AperFunction,Plated,PTH,ComponentDrill
T4C1.016
; #@! TA.AperFunction,Plated,PTH,ComponentDrill
T5C1.100
%
G90
G05
T1
X148.36Y-106.38
X153.44Y-106.38
T2
X143.32Y-93.7
X143.32Y-101.32
X145.86Y-93.7
X145.86Y-101.32
X148.4Y-93.7
X148.4Y-101.32
X150.94Y-93.7
X150.94Y-101.32
X153.48Y-93.7
X153.48Y-101.32
X156.02Y-93.7
X156.02Y-101.32
X158.56Y-93.7
X158.56Y-101.32
T3
X129.91Y-102.3
X132.45Y-102.3
X148.39Y-112.44
X150.168Y-113.964
X151.692Y-112.44
X153.216Y-113.964
X167.76Y-101.875
X170.3Y-101.875
X172.84Y-101.875
T4
X140.586Y-78.776
X140.586Y-81.824
X161.414Y-78.776
X161.414Y-81.824
T5
X129.55Y-88.55
X129.55Y-93.05
X136.05Y-88.55
X136.05Y-93.05
X165.95Y-88.55
X165.95Y-93.05
X172.45Y-88.55
X172.45Y-93.05
T0
M30
